<svg xmlns="http://www.w3.org/2000/svg" viewBox="0 0 442.93 117.3"><defs><style>.cls-1{fill:#fff;}</style></defs><title>arthouse white</title><g id="Layer_2" data-name="Layer 2"><g id="Layer_1-2" data-name="Layer 1"><path class="cls-1" d="M436.79,117.16H392.21c-4,0-8,.06-12,.06l-26-.06H338.86c-2.54,0-5.08,0-7.61,0-2,0-4-.11-6-.12q-5.21,0-10.41,0c-2.51,0-5,.11-7.52.11-1.73,0-3.45-.11-5.17-.11s-3.23.13-4.85.12c-3.68,0-7.36-.1-11-.12-1.7,0-3.39.13-5.09.11-2.33,0-4.66-.16-7-.18-2.91,0-5.82.05-8.73.06-1.73,0-3.45,0-5.18,0L237.12,117H227c-3.86,0-7.72,0-11.58,0-3.4,0-6.8.06-10.2.06-5.13,0-10.27,0-15.4-.06H64.38c-5.49,0-11,0-16.48,0-3.07,0-6.14.05-9.2.06-5.4,0-10.79,0-16.19,0-2.26,0-4.53.1-6.8.12s-4.55,0-6.82,0c-1.94,0-3.88-.09-5.82-.12-.59,0-1.19.13-1.78.11s-1.14-.22-1.14-1c0-1.8-.08-3.61-.08-5.42Q0,98.37,0,86.06q0-7.61,0-15.21c0-5.15,0-10.31,0-15.46,0-6.33,0-12.67-.06-19v-5.8q0-9.51,0-19C0,8.18,0,4.79.07,1.4.09.27.32,0,1.41,0,3.25,0,5.1.09,6.94.09s3.46,0,5.19,0c1.94,0,3.88,0,5.82,0,2.63,0,5.26,0,7.88,0,1.38,0,2.76,0,4.13,0,.46,0,.92,0,1.38,0,3.45,0,6.9,0,10.35,0,2.49,0,5,.09,7.47.09h71.36c1.85,0,3.7-.07,5.55-.09.56,0,1.13.09,1.7.09,2,0,4.07,0,6.1,0,5,0,10-.08,14.95-.09,2.46,0,4.92.08,7.39.09,2.89,0,5.78,0,8.67,0H200.7c2,0,3.94,0,5.92,0,2.89,0,5.78-.09,8.68-.09s6,.09,9,.09h79c3.33,0,6.67,0,10,0,2.32,0,4.64.1,7,.1,3,0,6-.09,9.05-.1,1.86,0,3.73.11,5.59.1,3.37,0,6.73-.09,10.09-.1,2.75,0,5.5.1,8.25.1,2.55,0,5.09-.08,7.64-.09,1.42,0,2.85.1,4.28.09,2.14,0,4.28-.1,6.42-.1,3.14,0,6.28.08,9.43.1.92,0,1.84-.1,2.76-.1,3.46,0,6.92.08,10.37.09,1.93,0,3.86-.08,5.79-.09q3.94,0,7.87,0c1.81,0,3.62.1,5.43.1,1.54,0,3.08-.09,4.62-.1,1.89,0,3.78.05,5.68.05,1.39,0,2.78,0,4.18,0,.59,0,1.19.09,1.78.1,3.56,0,7.12,0,10.67,0,.19,0,.39,0,.58,0,1.5.07,1.87.42,1.86,1.92,0,1.83-.1,3.65-.09,5.48,0,1.3.17,2.6.18,3.89,0,2.05-.08,4.09-.08,6.13,0,2.5.09,5,.09,7.49q0,12.42,0,24.83c0,3.14,0,6.29.07,9.43,0,2.52,0,5,0,7.56,0,4.61.12,9.21.12,13.81s-.09,9.32-.12,14c0,3.43,0,6.87,0,10.3,0,1.57.11,3.13.12,4.7,0,1.35-.07,2.7-.13,4.05,0,.77-.06,1.54-.14,2.3a.79.79,0,0,1-.86.78c-1.67.11-3.33.28-5,.43ZM205.57,9.13H182a.93.93,0,0,0-1,.9c-.06.61,0,1.23,0,1.85V28.52q0,3.81,0,7.63c0,1-.24,1.34-1.25,1.36-3.19,0-6.37,0-9.56.05-1.33,0-1.63-.3-1.63-1.61,0-3.79-.05-7.57,0-11.35,0-2.42-.54-2.09-2.2-2.12-3.83-.05-7.67,0-11.5,0-1.48,0-1.74.27-1.74,1.77q0,6,0,12c0,.67-.14,1.1-.93,1.12-1.53,0-3.07.14-4.6.18-1.36,0-1.95.28-1.91,1.54.08,2.92,0,5.86,0,8.78,0,.55,0,1.09,0,1.64s.18,1.06.95,1c.48,0,1,.1,1.45.11,1.25,0,2.5,0,3.75.07,1,.06,1.29.4,1.29,1.37v12c0,5.52,0,11,0,16.57a32.76,32.76,0,0,0,.63,5.3,13.49,13.49,0,0,0,3.16,6.58,16.06,16.06,0,0,0,3.47,3.23A24.27,24.27,0,0,0,165.47,98c3.64,1.19,7.32.85,11,0,1.24-.28,2.49-.47,3.74-.71a.63.63,0,0,1,.82.56,6.13,6.13,0,0,1,.15,1.28c0,2.33-.11,4.67-.12,7,0,1.16.38,1.48,1.53,1.48H201c2.12,0,4.24,0,6.36,0,1.93,0,3.86.11,5.78.12,1.7,0,3.39-.13,5.09-.12q12.93,0,25.87.13c1.76,0,3.51,0,5.27,0,3.06,0,6.11-.13,9.17-.12,4.87,0,9.75.11,14.62.12,3.48,0,7-.09,10.44-.13,1,0,2.05,0,3.07,0l18.15.13c1.88,0,3.76,0,5.64,0H351c6.53,0,13.06.06,19.58.07,3.28,0,6.55-.06,9.83-.07h21.29c2.82,0,5.65.07,8.48.07s5.42-.06,8.13-.07c1.41,0,2.83.06,4.24.07q3.26,0,6.52,0c1.08,0,2.16,0,3.24-.08.54,0,.94-.26.95-.89,0-1.35.1-2.69.1-4,0-2.46-.08-4.91-.09-7.37,0-1.89.08-3.78.09-5.68,0-3.59,0-7.18,0-10.76l0-17.43c0-3.61,0-7.22,0-10.84a1.73,1.73,0,0,1,.39-1.09c.52-.53.3-.92,0-1.41a2.2,2.2,0,0,1-.38-1.08c0-3,0-6,0-9,0-3.22-.05-6.44-.06-9.66,0-5.57,0-11.14,0-16.71a7,7,0,0,0-.14-1.77,1.25,1.25,0,0,0-.72-.8,7.71,7.71,0,0,0-1.93-.17c-2.65,0-5.31,0-8,0-1.83,0-3.65.12-5.47.12-2.72,0-5.44-.1-8.15-.12q-5.53,0-11.08,0c-2,0-4.07.12-6.1.12s-3.77-.12-5.66-.12c-2.81,0-5.62.11-8.43.12-1.88,0-3.75-.1-5.62-.12-2.39,0-4.79,0-7.18,0H297.1c-4.78,0-9.56,0-14.34,0-3,0-6.09,0-9.14,0-3.8,0-7.59.06-11.39.06-3.45,0-6.9-.06-10.35-.06-3.72,0-7.44.06-11.16.06s-7.28-.06-10.92-.06-7.44,0-11.16.06ZM75.43,97.4c2.07,0,4.14,0,6.21,0,.94,0,1.16-.33.91-1.23-.15-.52-.34-1-.45-1.55a37.06,37.06,0,0,1-1-5.06c-.19-2.71-.11-5.43-.14-8.15,0-2-.07-4.07-.07-6.11S81,71.4,81,69.45c0-3.33,0-6.65-.07-10,0-2.67,0-5.35-.23-8a14.92,14.92,0,0,0-2.59-6.84,17.78,17.78,0,0,0-9.3-6.75A32.77,32.77,0,0,0,58,36.21a30.28,30.28,0,0,0-7.83.67,38.89,38.89,0,0,0-5.1,1.53,18.12,18.12,0,0,0-8.33,6.8,21.4,21.4,0,0,0-3.08,6.49c-.17.61-.14,1.19.59,1.36,1.21.28,2.43.51,3.65.71s2.62.4,3.94.59c1.78.26,3.57.53,5.37.73a1.18,1.18,0,0,0,.87-.52,5.76,5.76,0,0,0,.54-1.36,7.39,7.39,0,0,1,4.7-4.69,12.2,12.2,0,0,1,6.55-.58,6.35,6.35,0,0,1,4.94,3.4c1.1,2.18,1,4.47.72,6.79a1.12,1.12,0,0,1-1.18,1.14c-1,.1-2,.34-2.95.51-1.92.33-3.85.59-5.75,1q-4.12.87-8.2,1.93a29.28,29.28,0,0,0-3.17,1.24,26.87,26.87,0,0,0-7.41,4.28A14.91,14.91,0,0,0,31.47,76a32.4,32.4,0,0,0-.71,4.62A16.29,16.29,0,0,0,32,88a14.24,14.24,0,0,0,2.21,3.65A18.21,18.21,0,0,0,45,98.35a21.43,21.43,0,0,0,15.73-2.79c1.61-1,3.2-2,4.82-3,.71-.42,1.22-.1,1.36.74a5,5,0,0,0,.25.92,15.07,15.07,0,0,1,.83,2,1.31,1.31,0,0,0,1.49,1.15C71.46,97.38,73.44,97.4,75.43,97.4Zm40.66-49.85-.28-.07a13.94,13.94,0,0,1-.35-2.1c0-2.2,0-4.4,0-6.6,0-.7-.24-1.09-1-1.13-.27,0-.53-.08-.8-.08h-12c-1.31,0-1.64.33-1.64,1.64,0,4.26,0,8.53,0,12.79,0,6.76.06,13.51.08,20.27q0,9,0,18.09c0,.57.08,1.14.08,1.71,0,1.43,0,2.87,0,4.3a1,1,0,0,0,1,1c4.36,0,8.71,0,13.07,0,.93,0,1.1-.25,1.1-1.22,0-2.11,0-4.22,0-6.34,0-6.82,0-13.64.11-20.46a18.2,18.2,0,0,1,1.33-6.56,17.62,17.62,0,0,1,5.71-7.72,16.81,16.81,0,0,1,7.85-3.49,28.81,28.81,0,0,1,5.08.11c1,0,1.26-.12,1.26-1.09q0-6.53,0-13.05c0-1.09-.2-1.24-1.28-1.33-4.22-.37-7.88,1.08-11.24,3.46a44.57,44.57,0,0,0-7.13,6.94A11.61,11.61,0,0,1,116.09,47.55Z"/><path class="cls-1" d="M202.58,22.63c0,4.15,0,8.29,0,12.43,0,2.54-.07,5.08-.08,7.62a3.52,3.52,0,0,0,.29,1,3.54,3.54,0,0,0,.88-.32c1.89-1.3,3.73-2.71,5.66-3.94a17.43,17.43,0,0,1,7.29-2.55,17.24,17.24,0,0,1,9.13,1.27,11.15,11.15,0,0,1,5.15,4.67,22.79,22.79,0,0,1,3,11.38c.09,4.58,0,9.17,0,13.75,0,3.39.14,6.78.18,10.18.05,4.87.06,9.75.08,14.62q0,1.42,0,2.85c0,1.53-.29,1.93-1.77,2-2,.08-4,0-5.95,0a1,1,0,0,1-1.15-1.2c0-1.53,0-3.07-.05-4.61,0-1-.12-2-.11-3,0-2.49.09-5,.11-7.48,0-4,.07-7.91.06-11.86,0-2.47-.11-4.94-.14-7.4,0-1.44.08-2.88.07-4.32,0-3.06.17-6.17-.72-9.14s-2.79-4.62-6.25-4.85A13.4,13.4,0,0,0,210.56,46a39.44,39.44,0,0,0-6.37,4.86,5.57,5.57,0,0,0-1.67,4.66c0,2.11,0,4.22,0,6.33,0,1.84.06,3.67.08,5.51,0,2.36,0,4.72.06,7.08s0,5,0,7.47c0,2.13,0,4.27,0,6.4,0,2.42.1,4.83.13,7.24,0,1.65,0,1.78-1.63,1.87-2.08.11-4.17,0-6.25,0-.85,0-1-.54-1-1.18,0-2,0-3.92,0-5.87V31.52c0-5,0-9.94,0-14.9,0-3,0-2.4,2.48-2.5,1.75-.07,3.52.1,5.28.17.66,0,.87.47.87,1,0,1.3,0,2.59,0,3.89,0,1.14,0,2.28,0,3.41Z"/><path class="cls-1" d="M289.81,97.56h-3.26c-.61,0-.91-.26-1-.92-.16-1.61-.38-3.21-.62-4.81-.13-.9-.52-1-1.23-.4-1.17,1-2.27,2.18-3.52,3.13a26.56,26.56,0,0,1-5.28,3.25,17.41,17.41,0,0,1-9,1.38,15.25,15.25,0,0,1-7.46-3,17,17,0,0,1-3.91-3.94,15.29,15.29,0,0,1-2.91-7.09,20.65,20.65,0,0,1,.35-8.14,16.5,16.5,0,0,1,3.36-6.5c3.61-4.27,8.28-6.77,13.52-8.39,3.18-1,6.34-2,9.52-3,1.81-.54,3.66-1,5.49-1.47.49-.13.85-.34.91-.9.27-2.91.16-5.76-1.43-8.37a8.91,8.91,0,0,0-5.2-3.92,14.19,14.19,0,0,0-6.34-.54,13.3,13.3,0,0,0-6.28,2.65,23,23,0,0,0-5,5.37c-.55.8-1.11,1-1.89.46-1.57-1.05-3.1-2.17-4.6-3.31-.55-.42-.35-1,0-1.45a30.17,30.17,0,0,1,7.13-7.13A21.88,21.88,0,0,1,271,36.88a23.51,23.51,0,0,1,11.44,1.67,16.73,16.73,0,0,1,6.17,4,14.08,14.08,0,0,1,3.9,6.61c.31,1.38.77,2.74,1,4.13a19,19,0,0,1-.09,2.71c0,.77.16,1.54.17,2.32,0,1.25-.07,2.51-.08,3.77,0,.42.08.84.08,1.26,0,4.27.07,8.53.09,12.8,0,3.43,0,6.87,0,10.3,0,2,.18,4,.28,6.06a.41.41,0,0,0,0,.16c.74,1.14.55,2.48.81,3.72.13.62,0,1.06-.81,1.09-1.38,0-2.76.15-4.14.23Zm-21.87-6.35a17.77,17.77,0,0,0,9.21-2.61,34.92,34.92,0,0,0,6.91-6,2.78,2.78,0,0,0,.7-1.5c.1-1.15,0-2.32,0-3.47,0-.49.08-1,.09-1.46s0-1.19,0-1.79c0-2,0-4-.05-6,0-1,0-2.08-.11-3.11a.87.87,0,0,0-.59-.59,2.5,2.5,0,0,0-1.1.18c-3.78,1.22-7.56,2.42-11.31,3.7a23.31,23.31,0,0,0-9,5.32A10.28,10.28,0,0,0,260.91,76c-.46.83-.54,1.86-.92,2.74a5,5,0,0,0-.4,2.88c.18,1.13,0,2.34.8,3.33a1.36,1.36,0,0,1,.24.5C261.26,88.43,265,91.44,267.94,91.21Z"/><path class="cls-1" d="M352.49,54.6c0,4.78,0,9.57,0,14.35,0,.6-.26,1.2-.24,1.8.05,2.45.22,4.9.24,7.35,0,5,0,10,0,15.06,0,1,0,2.08,0,3.12,0,.62-.25,1.13-1,1.15-2.31,0-4.61.09-6.92.12-.57,0-.81-.38-.83-.9-.05-1.18-.06-2.36-.13-3.54a3.22,3.22,0,0,0-.28-.88,4.6,4.6,0,0,0-.77.38,33.88,33.88,0,0,1-8,5.31,15.27,15.27,0,0,1-7.65,1.36,22.15,22.15,0,0,1-4.4-.66,12.4,12.4,0,0,1-7.49-6.4,19.15,19.15,0,0,1-2.22-8.06c-.17-3.7-.23-7.42-.28-11.12,0-3.29,0-6.57,0-9.86,0-2.41-.08-4.82-.08-7.23s.07-4.66.07-7c0-2-.07-4-.07-6.07,0-1.13.06-2.27.08-3.41,0-.51.22-.84.76-.86.92,0,1.84-.09,2.77-.09,1.19,0,2.39,0,3.57.11s1.54.49,1.54,1.74c0,2.75,0,5.5,0,8.24V61.84c0,1.69,0,3.38,0,5.08.06,3.84.14,7.68.21,11.53,0,.83,0,1.67.06,2.49a26.81,26.81,0,0,0,.53,3.82c.75,2.89,1.45,5.9,4.67,7.12a6.22,6.22,0,0,0,3.08.32,19.79,19.79,0,0,0,10.19-5.06c.95-.85,1.84-1.75,2.79-2.59a3.17,3.17,0,0,0,1.1-2.59c0-4,0-8,0-12V43.14c0-1,0-2,0-3.07s.33-1.5,1.49-1.54c.78,0,1.57,0,2.35,0,1.21,0,2.42.12,3.62.12.93,0,1.19.62,1.2,1.31,0,4.05,0,8.1.06,12.15V54.6Z"/><path class="cls-1" d="M403.27,82.06a8.54,8.54,0,0,0-4.35-7.42,34.91,34.91,0,0,0-7.73-3.35c-2.61-.89-5.25-1.72-7.77-2.82a23.21,23.21,0,0,1-7.5-4.91,13.23,13.23,0,0,1-3.54-7.22A16.84,16.84,0,0,1,373.3,47a15,15,0,0,1,6.25-7.23A20.21,20.21,0,0,1,388,37a26.06,26.06,0,0,1,7.84.43A28.8,28.8,0,0,1,400.72,39a28,28,0,0,1,3.8,2c.54.32.88,1,1.41,1.32a14.34,14.34,0,0,1,3.34,3.7c.59.81.45,1.38-.34,2-1.17.95-2.33,1.93-3.51,2.87s-1.33.62-2.2-.25-1.35-1.71-2.15-2.42a16.85,16.85,0,0,0-3.4-2.58,14.71,14.71,0,0,0-10.89-1.12A8,8,0,0,0,381,49.3a8.33,8.33,0,0,0,2.7,10,26.24,26.24,0,0,0,7.45,3.62c3.05,1.09,6.14,2.12,9.14,3.33a21.82,21.82,0,0,1,6.23,3.61,12.83,12.83,0,0,1,4.57,7.37,18.8,18.8,0,0,1,.22,6,18.42,18.42,0,0,1-3.51,9c-3.21,4.24-7.6,6.17-12.64,7A26.28,26.28,0,0,1,382.86,98a19.55,19.55,0,0,1-8.11-4.77c-1.41-1.41-2.7-2.94-4-4.45a3.36,3.36,0,0,1-.58-1.05,1.17,1.17,0,0,1,.48-1.51q2.17-1.41,4.4-2.76a3,3,0,0,1,1.2-.44,1.16,1.16,0,0,1,.89.36c1.25,1.55,2.34,3.24,3.68,4.7a11.72,11.72,0,0,0,5.33,3.11,15.22,15.22,0,0,0,8.23.66,17.59,17.59,0,0,0,4.5-1.54C402,88.5,403.22,85.51,403.27,82.06Z"/><path class="cls-1" d="M168.47,66.55V52.6c0-1.72.2-1.91,1.9-1.93s3.5-.11,5.25-.11c1.33,0,2.66.06,4,.14,1.09.06,1.3.32,1.3,1.41q0,4.37,0,8.73c0,4.43,0,8.86,0,13.3,0,3.06,0,6.13.12,9.2a2.54,2.54,0,0,1-1.52,2.52,9.11,9.11,0,0,1-4.12,1.36,7.44,7.44,0,0,1-5-1.2,4.79,4.79,0,0,1-1.73-3.45,30,30,0,0,1-.17-3C168.46,75.23,168.47,70.89,168.47,66.55Z"/><path class="cls-1" d="M65.69,75.35a27.52,27.52,0,0,1-.18,3.41c-.28,1.67-1.55,2.79-2.7,3.86a16.55,16.55,0,0,1-7.89,4.3,10.56,10.56,0,0,1-5.44.1,5.18,5.18,0,0,1-3.63-4.29,10.11,10.11,0,0,1,0-4.1,6.42,6.42,0,0,1,2.52-3.78,15.71,15.71,0,0,1,6-2.75c3.06-.67,6.14-1.22,9.23-1.79,1.41-.26,2,.29,2,1.72v3.32Z"/></g></g></svg>