<svg xmlns="http://www.w3.org/2000/svg" viewBox="0 0 231.42 237.78"><defs><style>.cls-1{fill:#fff;}</style></defs><title>burgr</title><g id="Layer_2" data-name="Layer 2"><g id="Layer_1-2" data-name="Layer 1"><path class="cls-1" d="M1.19,149.82H230.67c-.68,2.37-1.28,4.67-2,6.93a112.89,112.89,0,0,1-24.07,41.48,118.25,118.25,0,0,1-51.45,33.66,116.25,116.25,0,0,1-21.43,4.85,117.51,117.51,0,0,1-21,.91q-45.32-2.18-78-33.64A115.41,115.41,0,0,1,6.28,165.53a96.15,96.15,0,0,1-4.87-14.69C1.33,150.52,1.27,150.19,1.19,149.82Z"/><path class="cls-1" d="M231.42,90.82c-1.09.05-2.07.13-3,.13H2.82a11.32,11.32,0,0,1-1.43-.07c-.85-.11-1-.37-.88-1.23.07-.4.19-.8.29-1.19A114.52,114.52,0,0,1,22.86,44.75,118.76,118.76,0,0,1,77.23,6.46,116.86,116.86,0,0,1,98.09,1.4,110,110,0,0,1,119.54.09c30.67,1.3,57.27,12.36,79.4,33.71a116.87,116.87,0,0,1,32,54.77c.09.33.16.66.23,1S231.32,90.3,231.42,90.82ZM98.21,74a8.12,8.12,0,0,0,2.08-1.18l13.49-9.71c.41-.3.83-.59,1.25-.88a1.3,1.3,0,0,1,1.69,0l.58.42,15.31,11a9,9,0,0,0,.79.44,2.53,2.53,0,0,0-.23-1.72c-1.86-5.72-3.74-11.43-5.6-17.14-.46-1.4-.31-1.85.86-2.7l.5-.36,14.66-10.52a13.91,13.91,0,0,0,1.26-1c.13-.11.17-.3.3-.55-.35,0-.58,0-.8,0h-13l-7.45,0c-1.09,0-1.35-.2-1.72-1.22,0-.16-.1-.32-.16-.48q-2.69-8.24-5.37-16.47A5,5,0,0,0,115.8,20c-.23.55-.45,1-.61,1.49q-2.28,7-4.55,14.05c-.35,1.07-.67,2.14-1,3.2A1.76,1.76,0,0,1,107.76,40h-1.12L92.87,40c-1.74,0-3.47,0-5.2,0-.38,0-.81-.12-1.21.37.45.35.86.68,1.29,1l15.66,11.24c1.23.89,1.3,1.15.84,2.56Q101.37,64,98.5,72.83C98.4,73.14,98.34,73.46,98.21,74Z"/><path class="cls-1" d="M107.71,125.27a9.13,9.13,0,0,0-.19,1.26q0,3.48,0,6.94c0,1.32.31,1.59,1.65,1.58.41,0,.82,0,1.22,0a1.49,1.49,0,0,1,1.57,1.54c.06.81,0,1.63,0,2.44,0,1.16,0,2.32,0,3.47,0,1.41-.51,1.9-1.9,2-.68,0-1.36,0-2,0H93.16c-.41,0-.82,0-1.23,0-1.14-.08-1.6-.49-1.66-1.63-.07-1.29,0-2.59-.06-3.88,0-.75,0-1.5.05-2.24a1.51,1.51,0,0,1,1.65-1.66c.61-.05,1.23,0,1.84-.07s.82-.23.9-.88a5.67,5.67,0,0,0,0-.71q0-13.17,0-26.32c0-.3,0-.6,0-1-.84-.06-1.64-.14-2.45-.19-1.46-.09-1.92-.55-1.92-2q0-2.8,0-5.61c0-1.49.48-2,1.93-2q12.5,0,25,0a15.58,15.58,0,0,1,5.21.84,12.83,12.83,0,0,1,8.44,9.59,14.55,14.55,0,0,1-.07,7.47,13.29,13.29,0,0,1-6.34,8.16c-.78.46-1.58.9-2.42,1.38.21.32.36.58.53.82,2.12,2.91,4.27,5.81,6.35,8.75a3.71,3.71,0,0,0,3.38,1.7h.2c2.07,0,2.49.42,2.52,2.52,0,1.7,0,3.4-.06,5.1,0,1.26-.56,1.82-1.82,1.83-3.91,0-7.82,0-11.73,0a1.9,1.9,0,0,1-1.58-.79,10,10,0,0,1-.69-1q-5.06-8-10.12-16c-.31-.51-.68-1-1-1.47Zm-.33-14h0c0,.92,0,1.83,0,2.75,0,1.09.19,1.29,1.32,1.29,1.49,0,3,0,4.47-.08a10.36,10.36,0,0,0,2.57-.56c2-.67,2.75-2.61,2.4-4.72-.31-1.92-1.62-3-3.73-3-1.83,0-3.66,0-5.5,0-1.06,0-1.49.4-1.52,1.45S107.38,110.32,107.38,111.3Z"/><path class="cls-1" d="M203.52,125.16a8.5,8.5,0,0,0-.15,1.1c0,2.48,0,5,0,7.45,0,.94.34,1.25,1.3,1.35.64.07,1.28.11,1.92.19a1.34,1.34,0,0,1,1.28,1.35c0,.54.09,1.08.1,1.62,0,1.13,0,2.25,0,3.37a7.08,7.08,0,0,1-.09,1.22,1.69,1.69,0,0,1-1.89,1.71c-.58,0-1.15,0-1.73,0H188.52c-2,0-2.5-.47-2.54-2.44,0-1.53,0-3.06,0-4.59,0-.1,0-.2,0-.3.13-1.63.59-2.07,2.23-2.14.34,0,.68,0,1,0,1,0,1.27-.29,1.33-1.27,0-.41,0-.82,0-1.22q0-12.3,0-24.59c0-1.78-.1-1.88-1.88-2h-.21c-2-.1-2.47-.58-2.51-2.53,0-1.6,0-3.2,0-4.79,0-.11,0-.21,0-.31.12-1.59.57-2,2.16-2,6.7,0,13.4,0,20.1,0,2.24,0,4.49,0,6.72.21,5.32.47,9.08,3.15,11,8.21a14.3,14.3,0,0,1,.58,9.77,12.26,12.26,0,0,1-4.33,6.28c-1.41,1-2.85,2.06-4.32,3.12a1.09,1.09,0,0,0,.15.31c2.27,3.06,4.56,6.1,6.8,9.18a3.61,3.61,0,0,0,2.74,1.53l1.42.15c1.19.15,1.61.54,1.74,1.74a17.89,17.89,0,0,1,.05,1.94c0,1.26,0,2.51,0,3.77s-.62,2-2,2c-3.81,0-7.62,0-11.43,0a2.11,2.11,0,0,1-1.82-.93c-.22-.31-.43-.62-.63-.94l-9.77-15.53A7.46,7.46,0,0,0,203.52,125.16Zm-.34-14.4h0c0,.95-.13,1.9-.12,2.85,0,1.21.43,1.65,1.62,1.82a5.25,5.25,0,0,0,1.12,0c1.38-.11,2.77-.21,4.15-.39a9.08,9.08,0,0,0,2-.55,2.9,2.9,0,0,0,1.87-2.14,6.33,6.33,0,0,0,.13-2.21,3.38,3.38,0,0,0-3.45-3.22c-2-.09-4.07-.1-6.11-.1-.91,0-1.22.37-1.22,1.25Z"/><path class="cls-1" d="M4.32,105.91c-.92-.07-1.7-.12-2.48-.19-1.28-.12-1.76-.57-1.79-1.87,0-1.94,0-3.88,0-5.81,0-1.23.56-1.71,1.78-1.73,1.4,0,2.79,0,4.18,0,6.15,0,12.31,0,18.46.09a23.89,23.89,0,0,1,4.85.48c4.58,1,7.37,4,8.66,8.41a12.18,12.18,0,0,1-2.88,12.29l-1.17,1.29a5,5,0,0,0,.46.38,12,12,0,0,1,5.37,8.65,14.45,14.45,0,0,1-1.48,9.1,13.48,13.48,0,0,1-9.49,6.89,35.53,35.53,0,0,1-7.7.68l-12,.05c-2.21,0-4.42,0-6.63-.06-1.95,0-2.39-.46-2.42-2.41q0-2.55,0-5.1c0-1.39.54-1.86,1.94-1.94.44,0,.88,0,1.33,0,.77,0,1-.27,1.09-1s.11-1.7.11-2.55q0-11.31,0-22.63C4.48,107.88,4.38,106.94,4.32,105.91Zm12.76,23h0c0,.34,0,.68,0,1,0,1,0,2,.09,3a1.05,1.05,0,0,0,1.08,1.11c1.7,0,3.4,0,5.08-.18a3.58,3.58,0,0,0,3.09-2.47,6.84,6.84,0,0,0,.41-3c-.13-2.45-1.35-3.75-3.79-3.94-1.55-.12-3.12-.15-4.68-.18-1,0-1.26.2-1.28,1.23S17.08,127.76,17.08,128.88Zm3.23-22.27v.06c-.57,0-1.15,0-1.73,0-1,0-1.41.39-1.44,1.42,0,1.33,0,2.65-.05,4a11,11,0,0,0,.08,1.52c.09.69.32.91,1,.86,1.77-.13,3.53-.22,5.28-.48s2.61-1.21,2.69-3.11a5.88,5.88,0,0,0-.1-1.32,2.83,2.83,0,0,0-2.69-2.61C22.35,106.79,21.33,106.72,20.31,106.61Z"/><path class="cls-1" d="M168.86,142.64c-1.09.39-2.11.75-3.12,1.13a21.91,21.91,0,0,1-7.24,1.54,16.84,16.84,0,0,1-13.05-5.44A25.89,25.89,0,0,1,138.37,125a32.83,32.83,0,0,1,1.47-15.39A21.39,21.39,0,0,1,151.19,97c4.51-2.14,9.15-2,13.8-.44l1,.35a1.74,1.74,0,0,0,2.07-.3,1.72,1.72,0,0,1,1-.32c1.16,0,2.31,0,3.47,0s1.58.35,1.85,1.49c.6,2.51,1.17,5,1.74,7.54.52,2.25,1,4.51,1.53,6.76a1.71,1.71,0,0,1-1.17,2.35q-2.18.89-4.38,1.68a1.85,1.85,0,0,1-2.57-1c-.42-.7-.74-1.46-1.18-2.14-.86-1.35-1.7-2.71-2.67-4a7.94,7.94,0,0,0-4.63-3,5.51,5.51,0,0,0-4.53,1,8.09,8.09,0,0,0-2.25,2.48,14.68,14.68,0,0,0-2.06,6.13,30.23,30.23,0,0,0,.5,10.64,16,16,0,0,0,2,4.77,8.12,8.12,0,0,0,2.61,2.67,6,6,0,0,0,6.3.14,3.68,3.68,0,0,0,2-3.29,22.91,22.91,0,0,0-.11-2.34,1.23,1.23,0,0,0-1.15-1.22c-.74-.11-1.48-.18-2.22-.3-1.16-.19-1.56-.55-1.6-1.73-.07-1.93-.1-3.87,0-5.81,0-1.42.54-1.92,1.95-1.93q9,0,17.95,0c1.37,0,1.82.42,1.88,1.76.11,2,.11,3.94,0,5.91,0,1.24-.51,1.64-1.76,1.83-.44.07-.88.08-1.32.12-.89.09-1.1.31-1.14,1.23,0,.27,0,.54,0,.82q0,6.27,0,12.54a12.34,12.34,0,0,1-.14,1.72,1.35,1.35,0,0,1-1.29,1.23,9.87,9.87,0,0,1-1.22.07l-3.16.08h-.41C170.51,144.62,169.26,144.35,168.86,142.64Z"/><path class="cls-1" d="M71.26,105.74c-.86,0-1.61,0-2.35,0-1.36-.08-1.89-.63-1.91-2,0-1.83,0-3.67,0-5.51,0-1.37.57-1.93,1.93-1.93q7.6,0,15.2,0c1.26,0,1.8.53,1.82,1.81,0,1.94,0,3.87,0,5.81,0,1.15-.52,1.64-1.67,1.79-.58.08-1.15.11-1.73.2-.8.12-1,.35-1.13,1.18,0,.4,0,.81-.06,1.22,0,6.25,0,12.51-.12,18.76a24.31,24.31,0,0,1-1.47,8.09c-2,5.57-6.09,8.8-11.84,9.88a16.46,16.46,0,0,1-10.37-1.18A15.64,15.64,0,0,1,48.4,131.8a49.06,49.06,0,0,1-.38-8q0-8.06,0-16.11v-.2c0-1.5-.12-1.61-1.62-1.68a11.28,11.28,0,0,1-1.42-.09,1.43,1.43,0,0,1-1.43-1.46c-.07-2.14-.08-4.28,0-6.41,0-1,.62-1.44,1.61-1.49s1.7,0,2.55,0H62.36c.45,0,.89,0,1.33,0a1.53,1.53,0,0,1,1.55,1.36,3.88,3.88,0,0,1,.1.9c0,1.63,0,3.27,0,4.9s-.64,2.23-2.32,2.28c-.2,0-.4,0-.61,0a1.47,1.47,0,0,0-1.62,1.63c0,4.12,0,8.23.06,12.34q.06,4.74.24,9.48a7.42,7.42,0,0,0,.42,2.29,4.47,4.47,0,0,0,5.15,2.84,5.25,5.25,0,0,0,4.57-5.41q.12-10.86.2-21.71A12.31,12.31,0,0,0,71.26,105.74Z"/></g></g></svg>