<svg xmlns="http://www.w3.org/2000/svg" viewBox="0 0 81.09 118"><defs><style>.cls-1{fill:#fff;}</style></defs><title>HT white</title><g id="Layer_2" data-name="Layer 2"><g id="Layer_1-2" data-name="Layer 1"><path class="cls-1" d="M0,117.94V0H81V117.74a1.68,1.68,0,0,1,0,.2H0ZM55.06,66.83H55q-.75-3.42-1.48-6.84c-.49-2.29-1-4.58-1.48-6.86s-1-4.58-1.48-6.86H47.45c-.05.26,0,27.07,0,27.25a16.28,16.28,0,0,0,2.37,0V55.18c0-.14,0-.27,0-.41-.07-.86-.15-1.71-.22-2.56a.5.5,0,0,1,0-.13l.06,0a.76.76,0,0,1,0,.11l.06.24q.54,2.61,1.1,5.22c.56,2.68,1.13,5.35,1.69,8s1.09,5.14,1.63,7.71a1.94,1.94,0,0,1,0,.2h3a.31.31,0,0,0,0-.08v-27s0-.08,0-.12,0,0,0,0H54.94v.33q0,7.91,0,15.8c0,.7,0,1.39.06,2.08s.05,1.44.07,2.16A1.1,1.1,0,0,1,55.06,66.83Zm5.36,6.72h4.51a7.7,7.7,0,0,0,1.17-.1A3.74,3.74,0,0,0,67.34,73a2.9,2.9,0,0,0,1.35-1.87,8,8,0,0,0,.21-2.07q0-9,0-18.07c0-.34,0-.68,0-1a10.17,10.17,0,0,0-.2-1.33,2.86,2.86,0,0,0-2.22-2.2,6,6,0,0,0-1.58-.19H60.65l-.23,0ZM56.67,27.41q0-4.68,0-9.38a7.93,7.93,0,0,0-.17-1.75A3.36,3.36,0,0,0,54,13.59a6.74,6.74,0,0,0-3.51,0,3.25,3.25,0,0,0-2.38,2.29,6.6,6.6,0,0,0-.29,2.07V36.88a7,7,0,0,0,.2,1.77,3.35,3.35,0,0,0,2.72,2.67,7.1,7.1,0,0,0,3,0,3.36,3.36,0,0,0,2.7-2.62,7.35,7.35,0,0,0,.21-1.87Q56.68,32.13,56.67,27.41ZM35.18,41.22c0-.1,0-.18,0-.26l-.51-3.53c-.17-1.17-.35-2.34-.52-3.51l-.51-3.52-.51-3.51c-.19-1.28-.38-2.56-.56-3.85s-.41-2.79-.61-4.19-.44-3-.67-4.5a.42.42,0,0,1,.11-.35A2.49,2.49,0,0,0,32,11.88a2.56,2.56,0,0,0-4.81-.69A2.49,2.49,0,0,0,27.49,14a.42.42,0,0,1,.11.37c-.11.7-.2,1.39-.31,2.09-.21,1.51-.43,3-.65,4.52l-.72,4.87c-.22,1.51-.43,3-.65,4.53-.26,1.74-.51,3.47-.77,5.21l-.72,5c0,.21-.06.43-.09.66h2.55l1-7.41c.39-.06,4.21,0,4.39,0l1.06,7.39Zm-23-27.6V41.2a16.81,16.81,0,0,0,2.46,0V28.25c.32-.05,3.56,0,3.75,0v13h2.44V13.63H18.41V25.76H14.67V13.62ZM41.33,46.28H37.77q-2,13.63-4.09,27.25h2.6l1-7.32h4.44l1,7.32h2.66Q43.38,59.9,41.33,46.28Zm-25.75,0q-2.05,13.63-4.1,27.26h2.61l1.05-7.32h4.44l1,7.32h2.66L19.14,46.27ZM66.43,39l-.29.14a4.06,4.06,0,0,1-1.66.19,1.53,1.53,0,0,1-1.23-.75A3.43,3.43,0,0,1,63,38a4.73,4.73,0,0,1-.18-1.45q0-9.24,0-18.47c0-.1,0-.2,0-.3a3.9,3.9,0,0,1,.2-1.22,1.36,1.36,0,0,1,1-.93,2.7,2.7,0,0,1,.8,0,1.45,1.45,0,0,1,1.42,1.23,5.2,5.2,0,0,1,.14,1c0,.92,0,1.84,0,2.77a2.09,2.09,0,0,0,0,.25h2.44a1.15,1.15,0,0,0,0-.18c0-1,0-2,0-3a5.11,5.11,0,0,0-.17-1.4,3.46,3.46,0,0,0-2.45-2.63,5.88,5.88,0,0,0-3.64.08A3.41,3.41,0,0,0,60.41,16a5.34,5.34,0,0,0-.24,1.64V36.76a7.86,7.86,0,0,0,.19,1.74,3.47,3.47,0,0,0,2.71,2.76,6.84,6.84,0,0,0,1.42.2,9.64,9.64,0,0,0,4.15-.7l.25-.11c0-.52,0-12.74,0-12.92-.43-.05-4.3,0-4.47,0v2.12h1.35c.23,0,.45,0,.68,0Zm.21,51.93a8.1,8.1,0,0,0,.94-.24,1.66,1.66,0,0,0,1.07-1.1,4.2,4.2,0,0,0,.19-1.37V81.43a5.12,5.12,0,0,0-.06-.78A2.09,2.09,0,0,0,67,78.74a5.81,5.81,0,0,0-1.09-.14c-1.68,0-3.35,0-5,0l-.15,0V104.3a17,17,0,0,0,2.37,0,0,0,0,0,0,0,0,0,0,0,0,0,0,0v-12l0,0,0,0h.09c.56,0,1.13,0,1.69,0a4.61,4.61,0,0,1,.82.11,1.07,1.07,0,0,1,.82.93,2.92,2.92,0,0,1,0,.51c0,.78,0,1.56,0,2.33v8.29h2.23V104q0-5.24,0-10.48a5.15,5.15,0,0,0,0-.56A1.92,1.92,0,0,0,67.3,91C67.08,91,66.85,90.93,66.64,90.88ZM34.4,78.6q-1.93,12.87-3.86,25.72H33l1-6.91h4.2l.93,6.9a17.13,17.13,0,0,0,2.51,0L37.76,78.6Zm-5,2.16V78.6H22.19c-.06.3,0,25.55,0,25.72h7.17v-2.06H24.53V92.05h3.72V90H24.57s0-.06,0-.07a1.34,1.34,0,0,1,0-.2c0-3,0-5.94,0-8.91l0,0,0,0Zm22.14-2.17v25.73H58.7v-2.06H53.86V92.06h3.71V90H53.86V80.76h4.82a14.18,14.18,0,0,0,0-2.17ZM38,13.62v27.6h8a14.57,14.57,0,0,0,0-2.3H40.48V16.13c0-.84,0-1.67,0-2.51Zm-13,59.91H32.6V71.27H27.5v-25c-.82,0-1.61,0-2.42,0ZM14.73,80.76v23.56h2.41V80.77h3.34V78.61c-.28,0-8.8,0-9,0v2.14Zm29.38,0v23.56h2.41V84.4c0-.61,0-1.21,0-1.82s0-1.2,0-1.82h3.33V78.6h-9v2.16Z"/><path class="cls-1" d="M0,117.94H81a1.68,1.68,0,0,0,0-.2V0l0,0a1.33,1.33,0,0,1,0,.2V118H.22C.15,118,.05,118,0,117.94Z"/><path class="cls-1" d="M63,71.38V48.47a.76.76,0,0,1,.16,0l1.76,0a1.83,1.83,0,0,1,.46.07,1.33,1.33,0,0,1,1,1.23,5.11,5.11,0,0,1,.05.78q0,9.36,0,18.73c0,.26,0,.51,0,.76A1.37,1.37,0,0,1,65,71.34c-.48,0-1,0-1.46,0Z"/><path class="cls-1" d="M50.29,27.44V18.08a5.15,5.15,0,0,1,.11-1.17,1.57,1.57,0,0,1,1.52-1.35,2.54,2.54,0,0,1,1,.07,1.38,1.38,0,0,1,1,.85,3.63,3.63,0,0,1,.24,1.27c0,.11,0,.22,0,.34q0,9.38,0,18.76a5.46,5.46,0,0,1-.1,1.07,1.5,1.5,0,0,1-1.4,1.35,2.8,2.8,0,0,1-1,0,1.45,1.45,0,0,1-1.08-.94,3.7,3.7,0,0,1-.22-1.4V27.44Z"/><path class="cls-1" d="M29.42,15.7c.1.26,1.95,15.48,1.92,15.73H27.51C27.5,31.11,29.34,15.89,29.42,15.7Z"/><path class="cls-1" d="M28.16,12.32a1.28,1.28,0,1,1,1.28,1.28A1.29,1.29,0,0,1,28.16,12.32Z"/><path class="cls-1" d="M41.42,63.87H37.69l1.71-15h.31Z"/><path class="cls-1" d="M17.21,48.89l.13,0,.17,0,1.71,15H15.49Z"/><path class="cls-1" d="M63.17,89.94V80.68l.19,0H64.9a2.84,2.84,0,0,1,.51,0,1.25,1.25,0,0,1,1.12,1.23,4.35,4.35,0,0,1,0,.51c0,1.83,0,3.66,0,5.49a4.54,4.54,0,0,1-.07.82,1.28,1.28,0,0,1-1.12,1.11A14.45,14.45,0,0,1,63.17,89.94Z"/><path class="cls-1" d="M36,81.05h.26c.53,4.72,1.07,9.42,1.61,14.15H34.37C34.31,95,35.9,81.32,36,81.05Z"/></g></g></svg>