<svg xmlns="http://www.w3.org/2000/svg" viewBox="0 0 337.78 417.27"><defs><style>.cls-1{fill:#fefefe;}</style></defs><title>hildr</title><g id="Layer_2" data-name="Layer 2"><g id="Layer_1-2" data-name="Layer 1"><g id="SspyUd"><path class="cls-1" d="M36.16,50.48C71.57,19.62,112.26,2.7,158.6.28c64-3.34,114.12,23.45,143.31,50.4-1.76,1.67-3.53,3.32-5.27,5-7.51,7.18-10.12,17.65-6.35,26.91,4.13,10.15,12,15.48,22.83,16.21,5,.35,9.41-2,13-5.39,2.43-2.31,4.46-1.37,6.91-.48s1.84,2.94,1.88,4.68q.69,31.13,1.31,62.26.56,26.28,1.17,52.56c.08,3.42.33,6.84.4,10.26.53,28.38-9,53.37-26,75.72-12.72,16.72-28.69,30-45.84,41.82-16.19,11.2-32.73,21.89-48.91,33.1-12.67,8.79-24.6,18.51-33.68,31.21A119.46,119.46,0,0,0,176.89,415c-.87,1.55-1.82,2.34-3.66,2.26-2.83-.12-5.69.09-8.52-.1a3.84,3.84,0,0,1-2.85-1.41c-9.3-18.37-24.49-31.12-40.9-42.57-15.75-11-31.9-21.37-47.7-32.27-17.81-12.29-34.38-26-47.53-43.42C10.9,277.86,1.83,255.88.68,231.2c-.8-17.11-.49-34.27-.54-51.41C.06,152.65.12,125.51,0,98.37c0-2.73.75-4.29,3.44-4.8a.88.88,0,0,0,.27-.1c3.69-2,6.65-1.75,10.19,1.21,9.75,8.16,22.85,3.06,29.4-4.48,9.09-10.45,8.31-24.72-1.64-34.4C40,54.16,38.3,52.54,36.16,50.48ZM330.45,98.67l-1-.47c-12.89,9.3-25.75,8.08-36.4-2.38-14.82-14.54-12.44-30.3.26-45.34-.85-.77-1.47-1.4-2.16-1.94C247.28,14.07,197.64.18,142.33,7.4c-35.71,4.66-67.48,18.84-95.57,41.34C45,50.15,44.68,51,46.4,52.84c8.56,9.1,10.85,19.73,6.74,31.51-4.27,12.23-17.65,21.76-32,19.38-3.71-.61-7.1-3-10.69-4.51-1.23-.5-2.87-1.12-3.88-.68-.8.35-1.24,2.22-1.3,3.44-.1,2.24.31,4.49.31,6.74q.09,59.24.14,118.46a72.61,72.61,0,0,0,.69,9.66,119.84,119.84,0,0,0,30.33,65.32C42.11,308.1,48,313.58,53.94,319c3.33,3.06,7.11,1.52,8-2.93.24-1.25.29-2.53.52-3.78.32-1.76.73-3.5,1-5,6.32,4.33,12.28,8.6,18.43,12.56s9.72,9,9.09,16.78c-.36,4.37,1.59,8.21,4.84,11.24a22.86,22.86,0,0,0,3,1.95c0-5.93,0-11.1,0-16.27,0-3.82,1.18-7.42,4.17-9.68,7.53-5.7,15.34-11,23.16-16.61a7.75,7.75,0,0,1,.58,1.16c.51,1.79,1.06,3.56,1.46,5.38,3,13.38,0,24.66-11.67,32.85-2.32,1.63-4.69,3.21-7,4.91-1.93,1.43-2.44,3.45-1.1,5.42,1.57,2.3,2.92.12,4.12-.67,5.52-3.64,11-7.39,16.66-11.25C132,353,133.4,361,130.94,369.17c-.81,2.68-.22,4,1.9,5.54,10,7.38,19.9,15,27.84,24.71,3,3.68,5.6,7.69,8.57,11.8.58-.9,1-1.73,1.62-2.47,3.83-4.94,7.17-10.41,11.66-14.67,7.45-7.05,15.59-13.37,23.56-19.85,1.81-1.47,2.51-2.59,1.84-5.08-2.17-8.11-.8-16,1.8-23.56,5.66,3.84,11.13,7.6,16.68,11.25.83.55,2.67,1,3,.67a5,5,0,0,0,1.22-3.6,6.75,6.75,0,0,0-2.35-3.47c-2.08-1.77-4.44-3.21-6.62-4.87-12.64-9.57-13.71-24.36-8-38.19,2.59,1.92,5.12,3.89,7.74,5.73,4.57,3.2,9.24,6.27,13.79,9.49a11.58,11.58,0,0,1,5.23,8.82c.32,4.88.25,9.78.37,14.67,0,1.09.15,2.18.23,3.31a5.66,5.66,0,0,0,1-.18,3.59,3.59,0,0,0,.75-.46c4.36-3.43,6.06-8.09,5.89-13.45-.18-5.64,1.77-10.12,6.45-13.36,7-4.83,13.94-9.69,21.23-14.77.39,2.39.74,4.86,1.21,7.31.93,4.95,4.78,6.34,8.56,3.07a142.76,142.76,0,0,0,27.51-31.19c12.21-19.19,19.2-40,18.71-63-.18-8.12-.39-16.25-.55-24.37q-.33-16.89-.59-33.78-.37-27.17-.68-54.35C330.41,106.84,330.45,102.75,330.45,98.67Z"/><path class="cls-1" d="M274.72,153.77H211.39c7.85-9,6.64-17.47-1-25.82h65.13C268.29,136.18,266.74,144.62,274.72,153.77Z"/><path class="cls-1" d="M65.29,153.72c7-11.09,6.81-16-1.16-25.68h65.1c-3.48,3.67-5.95,7.65-6.27,12.65s1.76,9.09,5.45,13Z"/><path class="cls-1" d="M186,88.61a201.21,201.21,0,0,0,.68-66c2.26.17,4.92.26,7.55.59,3.4.41,6.77,1,10.15,1.53,8,1.25,13,6,15.57,13.45,2.9,8.3,3.18,16.93,2.25,25.53a63,63,0,0,1-3.17,14.53c-2.46,6.81-7.72,10.38-15.13,10.39C197.88,88.62,191.84,88.61,186,88.61Zm11.84-22.2h-.54c0,3.13-.1,6.27.06,9.39.05.85.73,2.19,1.4,2.39,6.94,2.08,12.11-.86,13.64-8a67.22,67.22,0,0,0,.55-25c-1.23-7.57-4.34-10.1-11.94-10.81-2.61-.25-3.22.57-3.2,3C197.92,47,197.86,56.72,197.86,66.41Z"/><path class="cls-1" d="M112.71,88.45h-15c3.58-8.86,2.76-17.75,2.11-27.22L91.61,65.8c-.42.23-.83.5-1.26.75-6.46,3.73-7.06,4.88-5.65,12.29.6,3.12,1.54,6.19,2.39,9.54H73.63c-.1-.24-.29-.45-.24-.58,4.21-11.52,2.26-23.38,1.88-35.15A9.43,9.43,0,0,0,74,48.46c-1.23-2.13-.81-3.24,1.44-4.2,3.58-1.54,7-3.35,11.3-5.41a50.74,50.74,0,0,0-2.51,22.42c1.76-1,3.09-1.7,4.36-2.49,2.9-1.83,5.7-3.81,8.67-5.52a4.46,4.46,0,0,0,2.46-5.33c-.88-4.18-1.71-8.37-2.68-13.17L111.2,30c-3.55,10.17-2.92,19.94-2.47,29.63S108,79.06,112.71,88.45Z"/><path class="cls-1" d="M230.21,30.52c9,3.26,18.45,5.41,26.38,11.08a16.88,16.88,0,0,1,6.76,10c1.34,5.52-.21,9.67-5.15,12.44-2,1.11-2.23,2.23-1.58,4.23,2.29,7,4.41,14.16,10,20.31-4,0-7.16.15-10.34-.1-.8-.07-1.86-1.31-2.17-2.23-1.79-5.27-3.4-10.61-5.06-15.93-1-3.11-1.52-3.25-5.89-2.75-2.69.31-3.15,1.91-2.94,4.06.55,5.5,1.16,11,1.76,16.71H229A160.33,160.33,0,0,0,230.21,30.52Zm10.66,20.89h-.1c0,1.86.07,3.72,0,5.57s.65,2.63,2.38,2.47a63.66,63.66,0,0,0,7.82-.9,5.72,5.72,0,0,0,4.87-5.17A5.82,5.82,0,0,0,252.23,47c-2.82-1.31-5.83-2.19-8.75-3.28-1.84-.7-2.58.12-2.61,1.87C240.84,47.5,240.87,49.46,240.87,51.41Z"/><path class="cls-1" d="M96.62,121.49c-11.26,0-22.52,0-33.79,0a10.53,10.53,0,0,1-4-.63A5.64,5.64,0,0,1,55.27,115a5.41,5.41,0,0,1,3.85-5.34,14.55,14.55,0,0,1,4.61-.63q32.91-.06,65.82,0a16.3,16.3,0,0,1,3.49.3c3.56.84,5.28,3.33,4.89,6.89-.33,3-2.69,5.1-6.05,5.3-1.17.07-2.35,0-3.52,0Z"/><path class="cls-1" d="M243,121.49c-11.46,0-22.92,0-34.38,0-4.42,0-6.93-2.32-6.94-6.2s2.56-6.19,6.94-6.28,8.62,0,12.93,0q27.61,0,55.24,0c4.72,0,7.43,2.23,7.56,6,.14,4-2.48,6.48-7,6.49C266,121.51,254.5,121.49,243,121.49Z"/><path class="cls-1" d="M126.14,179.35c5.74,14.32,4.41,28.81-8.35,38.21-6.06,4.47-12.3,8.68-18.66,13.14a16.19,16.19,0,0,1-.23-2c0-7.64,0-15.28,0-22.92a13.27,13.27,0,0,1,5.44-11.18c3.12-2.35,6.36-4.56,9.57-6.8C118,185,122.06,182.16,126.14,179.35Z"/><path class="cls-1" d="M99,316.88c0-9.31-.21-18.29.09-27.26.13-4,2.59-7.12,5.84-9.45s6.28-4.34,9.41-6.52c3.92-2.73,7.82-5.47,12.18-8.52.7,2.93,1.54,5.86,2.1,8.85,2.35,12.51-1.11,22.85-11.68,30.39C111.14,308.51,105.25,312.53,99,316.88Z"/><path class="cls-1" d="M248.87,230.81a22.83,22.83,0,0,1-.22-2.32c0-7.33.07-14.67,0-22-.07-5.31,1.89-9.51,6.25-12.54,4-2.79,8.09-5.49,12.09-8.3,3-2.12,5.94-4.37,8.89-6.54,5.7,13.88,4.65,28.37-7.29,37.63C262.25,221.62,255.58,226,248.87,230.81Z"/><path class="cls-1" d="M63.58,179.13c7.26,5.06,14.32,10,21.34,14.91,4.26,3,6.13,7.14,6,12.36-.13,7.25,0,14.5,0,21.75,0,.84-.1,1.68-.15,2.53-5.92-4.12-11.69-8.12-17.43-12.15-11.4-8-14.69-19-11.85-32.24.45-2.1,1.08-4.17,1.65-6.24A4.67,4.67,0,0,1,63.58,179.13Z"/><path class="cls-1" d="M240.71,230.76c-5.82-4-11.35-7.87-16.91-11.68-12.08-8.29-15.55-19.74-12.33-33.63.39-1.72.9-3.4,1.38-5.09a13.36,13.36,0,0,1,.61-1.33c2.27,1.74,4.34,3.46,6.54,5,5,3.47,10,6.82,15,10.28a12.68,12.68,0,0,1,5.65,10.47C240.86,213.36,240.71,222,240.71,230.76Z"/><path class="cls-1" d="M240.65,316.83c-5.86-4.05-11.42-7.69-16.77-11.62-12.35-9.07-15.94-19.21-12.32-34.12.48-2,1.08-3.91,1.65-6,7.86,5.58,15.7,10.7,22.94,16.55a13.26,13.26,0,0,1,4.3,8.6C241,299,240.65,307.78,240.65,316.83Z"/><path class="cls-1" d="M126.41,222.3a41.62,41.62,0,0,1,2.45,21.37c-1.11,7.14-5.29,12.61-10.93,16.83-6.09,4.56-12.42,8.79-19,13.44v-25.1a13.18,13.18,0,0,1,5-10.8c2.44-2,5-3.77,7.57-5.56C116.34,229.1,121.27,225.79,126.41,222.3Z"/><path class="cls-1" d="M240.61,273.87c-6.73-4.79-13.4-9.21-19.7-14.09-10.41-8.07-12.11-19-9.48-31.18.47-2.15,1.16-4.26,1.78-6.51,7.78,5.49,15.3,10.7,22.7,16.08a11.14,11.14,0,0,1,4.63,8.84C240.76,255.87,240.61,264.74,240.61,273.87Z"/><path class="cls-1" d="M63.42,222.1c7.47,5.23,14.77,10.27,22,15.43,3.85,2.76,5.56,6.64,5.52,11.39-.07,8.21,0,16.41,0,25.38-7.93-6-15.78-11.16-22.69-17.36-8.3-7.43-8.77-17.44-6.71-27.71C62,226.77,62.81,224.37,63.42,222.1Z"/><path class="cls-1" d="M276,265.2c5.84,15.74,4.15,29.52-9.32,39.21-5.77,4.16-11.66,8.15-17.81,12.43-.08-1.12-.19-2-.19-3,0-6.85.19-13.7-.07-20.54a15.12,15.12,0,0,1,7.1-13.93c4-2.76,8.15-5.4,12.17-8.19C270.56,269.34,273.16,267.3,276,265.2Z"/><path class="cls-1" d="M248.83,273.81c0-9.42-.35-18.62.22-27.76.16-2.73,2.42-5.79,4.55-7.83,3.08-2.93,6.91-5.08,10.43-7.55,3.91-2.74,7.83-5.47,12.43-8.67.86,4.35,2,8.53,2.47,12.78,1.25,11.25-3.19,20-12.27,26.56C260.86,265.49,255,269.51,248.83,273.81Z"/><path class="cls-1" d="M90.92,316.9l-17.29-12c-11.74-8.17-15.11-19.4-12-33,.46-2,1-4,1.6-5.94.08-.26.35-.46.44-.58,7.17,5,14.34,9.87,21.41,14.89,4.23,3,6,7.19,5.92,12.42C90.8,300.63,90.92,308.55,90.92,316.9Z"/><path class="cls-1" d="M178.26,71.61c-1,5-2,10.09-3.18,15.1a2.78,2.78,0,0,1-1.9,1.79c-8.49.12-17,.08-25.42.08a193.17,193.17,0,0,0-.71-65.45l14.53-1.32c-.25,1.16-.44,1.88-.55,2.61-.84,5.68-2.25,11.36-2.38,17.07-.25,11.34.23,22.7.32,34.05,0,2.38,1.21,2.71,3.18,2.56a23.6,23.6,0,0,0,15.18-6.87Z"/><path class="cls-1" d="M137.05,88.36H123a177,177,0,0,0-1.48-61l14.55-3c-3.83,11-2.95,21.62-2.7,32.2S132.84,78,137.05,88.36Z"/><path class="cls-1" d="M242.72,167.41H207.46c-1,0-2.14.29-2.89-.13a6,6,0,0,1-2.74-2.71c-.63-1.8.32-3.27,2.32-3.66a17.26,17.26,0,0,1,3.22-.22q35.7,0,71.41,0a16.9,16.9,0,0,1,3.48.34,2.61,2.61,0,0,1,2.05,3.59,5.59,5.59,0,0,1-2.55,2.63c-.75.42-1.91.16-2.89.16Z"/><path class="cls-1" d="M96.72,167.41H60.92c-1,0-2.15.29-2.89-.15a6.2,6.2,0,0,1-2.68-2.81c-.58-1.67.36-3.06,2.21-3.47a13.4,13.4,0,0,1,2.9-.29q36.24,0,72.48,0a12.11,12.11,0,0,1,2.62.23c1.95.43,3,1.85,2.35,3.66a6,6,0,0,1-2.79,2.7c-.76.42-1.91.13-2.89.13Z"/><path class="cls-1" d="M170.09,237c10.28,0,20.56,0,30.84,0,2.09,0,3.59.1,3.45,2.93-.2,4.43-.47,5.09-3.66,5.09q-30.84,0-61.68,0c-1.07,0-2.91-.6-3.07-1.25a17.86,17.86,0,0,1-.21-6c0-.33,1.89-.66,2.9-.66C149.14,236.93,159.62,237,170.09,237Z"/><path class="cls-1" d="M155.63,273c6.37,0,12.74-.21,19.08.05,6.67.27,8.66,4.48,5.24,10.75,2.47,1.63,4,3.88,3,6.92-1.06,3.24-3.85,4.49-6.91,4.57-6.83.19-13.67.06-20.38.06Zm13,18.69v0c1.86,0,3.71.1,5.56,0s3.94-.48,4-3-2.08-2.88-4-3c-3.7-.14-7.41,0-11.11-.08-2.29,0-2.74,1.27-2.74,3.2s.65,2.94,2.73,2.85C165,291.65,166.81,291.72,168.66,291.72Zm-.75-9.41v-.06c2,0,3.91.13,5.84,0,1.71-.14,3.69-.76,3.14-2.88a4.5,4.5,0,0,0-3.27-2.44c-3.48-.33-7-.06-10.52-.15-2.07-.05-2.71.94-2.71,2.86s.87,2.82,2.84,2.72C164.79,282.25,166.35,282.31,167.91,282.31Z"/><path class="cls-1" d="M130.11,255.83c1.54-3.62,4.09-4.69,7.42-4.68q22.32,0,44.65,0c6.86,0,13.71,0,20.57,0,3.45,0,5.24,1.3,6.63,4.65Z"/><path class="cls-1" d="M33,157.32c-3.62,0-7.25.06-10.87-.06-.66,0-1.3-.77-2-1.19.5-.49.93-1.29,1.51-1.41,2.1-.45,2.54-1.84,2.52-3.69,0-3.53-.05-7.06,0-10.58,0-1.92-.55-3.18-2.63-3.6-.53-.11-.93-.95-1.38-1.46.59-.37,1.18-1.05,1.78-1.06,7.25-.07,14.5-.1,21.74,0a3,3,0,0,1,2.09,1.83,15.94,15.94,0,0,1,.57,4.63c0,.59-.49,1.61-.9,1.69a2.3,2.3,0,0,1-1.85-.84c-2.57-3.64-8.73-5.81-12.55-3.92-.85.42-1.16,2.44-1.19,3.74,0,.71,1.12,2.09,1.65,2.05a9.55,9.55,0,0,0,3.71-1.42A8.09,8.09,0,0,0,37,140.22a7.44,7.44,0,0,1,1.1,2.39,37.11,37.11,0,0,1,0,5.87c-.05.62-.72,1.2-1.1,1.79-.51-.44-1.3-.8-1.48-1.36-.69-2.15-2.49-2.38-4-1.86-.82.28-1.52,2-1.59,3.13-.24,3.75.06,4,3.87,3.95,1.56,0,3.13-.11,4.68-.26a5.89,5.89,0,0,0,5.24-4.08c.29-.75,1.19-1.27,1.81-1.9l1.3,2.61a.7.7,0,0,1,0,.29c0,6.46,0,6.53-6.39,6.53Z"/><path class="cls-1" d="M205.85,226.11c-1.23,3.54-2.83,4.69-6.49,4.7q-16.76,0-33.5,0c-8.52,0-17,0-25.56,0-3.66,0-5.25-1.16-6.47-4.7Z"/><path class="cls-1" d="M155.91,344.77c6.12,0,12.57-.13,19,.05,3.13.08,5.72,1.58,6.72,4.79a7.46,7.46,0,0,1-2.22,8.27,3.15,3.15,0,0,0-.59,2.84,63.11,63.11,0,0,0,3.39,6.26H176a15.48,15.48,0,0,0-.27-1.8c-1.28-4.91-2.69-6-7.72-6h-2.35c-5.49,0-6.42,1.34-4.72,6.76.11.34.22.68.39,1.18h-5.44V344.77Zm12.19,10.54v0c1.85,0,3.71,0,5.57,0s3.52-.95,3.54-3.09c0-2.31-1.55-3.18-3.71-3.18-3.51,0-7,.08-10.55,0-2.52-.09-2.52,1.5-2.56,3.26s.34,3.28,2.73,3.1C164.77,355.21,166.44,355.31,168.1,355.31Z"/><path class="cls-1" d="M296.18,152.29c4.74,0,9.22.14,13.67-.1,1-.05,2-1.38,3-2.06s1.81-1.08,2.95-1.76a11,11,0,0,1,.34,1.58c-.36,7.37-.36,7.37-7.75,7.37-4.5,0-9-.1-13.5,0-2.36.08-3.07-1-3.2-3.13-.3-5.3,1.58-7.87,6.73-8.92a56.16,56.16,0,0,0,7.71-1.65c1.2-.43,2.84-2.12,2.74-3.07-.12-1.13-1.72-2.58-3-3-3.84-1.37-7.58,0-10.21,3.11-.58.67-1.71.87-2.59,1.29a15.86,15.86,0,0,1-.49-2.6,24.26,24.26,0,0,1,.29-2.92c.15-1.69.87-2.41,2.72-2a8.72,8.72,0,0,0,3.7-.09,19.83,19.83,0,0,1,11.54.64c3.16,1.09,5.16,3.6,5.09,6.14s-1.83,4.56-5.38,5.39c-3.12.73-6.37.95-9.52,1.57C298.93,148.46,296.48,148.69,296.18,152.29Z"/><path class="cls-1" d="M22.14,182.14a13.24,13.24,0,0,1,2.71,1.54,14.44,14.44,0,0,0,12.43,3.88c1.18-.16,2.21-1.49,3.31-2.28-1-.81-1.84-2.05-3-2.34-3.1-.83-6.45-.88-9.43-2a10.9,10.9,0,0,1-5.5-4.24c-1.6-2.84-.09-6,2.85-7.73,3.9-2.25,8-2.21,12.17-.8,1.53.52,3.07,1.46,4.58-.22.23-.25,1.69.06,1.73.27a43.84,43.84,0,0,1,.74,6.05c0,.27-1.11.91-1.59.81a4.89,4.89,0,0,1-1.85-1.26c-3.17-2.7-6.81-3.88-10.87-2.86-1.12.28-2,1.55-3,2.36,1,.77,1.88,1.93,3,2.22,3.21.82,6.55,1.11,9.75,1.94,2.89.75,5.15,2.41,5.48,5.75.4,4.2-1.93,7.2-6.75,7.47-3.62.21-7.3-.71-11-1-1-.08-2.12.52-3.18.52-.8,0-2.19-.32-2.3-.75a65.89,65.89,0,0,1-1-6.61Z"/><path class="cls-1" d="M304.62,191c-7.81,0-12.47-2.8-14.1-7.95-2.65-8.33,2.89-15.43,12.48-15.86a22.38,22.38,0,0,1,5.52.58c6.38,1.36,9.68,6,9.31,12.89-.29,5.2-4.64,9.45-10.47,10.17C306.2,191,305,191,304.62,191Zm7.11-11.83c0-5.21-2.92-8.5-7.59-8.58s-8,3.34-8.08,8.49,3.05,8.63,7.85,8.63C308.9,187.75,311.74,184.65,311.73,179.2Z"/><path class="cls-1" d="M292.45,248.26c.55-4.38,1-7.75,1.38-11.14.18-1.89,1.1-2.44,2.89-2.39,3.82.09,7.65.06,11.47,0,1.84,0,3.67-.19,5.52-.29,1.12,3.46.3,4.66-3.27,4.68s-6.86,0-10.28,0c-3.61,0-4,.48-3.6,4.46,3.36-.23,6.72-.59,10.08-.62a14.86,14.86,0,0,1,4.84,1,6.12,6.12,0,0,1,4.48,5.92,6.32,6.32,0,0,1-3.95,6.34c-6.47,2.82-13,2.45-19.33-.44-2.34-1.07-1.28-2.33-.27-3.51,2.49.75,4.79,1.82,7.16,2.06a18.77,18.77,0,0,0,7.14-.76,4.27,4.27,0,0,0,2.36-3.22c0-1.14-1.28-3.19-2.21-3.31a51.87,51.87,0,0,0-9.41,0A30.39,30.39,0,0,0,292.45,248.26Z"/><path class="cls-1" d="M33.56,201.24c3.52,0,7,.06,10.55,0,1.79-.05,2.77.45,2.81,2.41,0,1.55.42,3.1.42,4.65,0,.62-.6,1.25-.92,1.87-.61-.47-1.56-.82-1.78-1.43A5.79,5.79,0,0,0,39,204.4c-1.66-.07-2.65.45-2.65,2.25,0,3.91-.17,7.84.12,11.73.08,1.11,1.48,2.15,2.31,3.19.43.55.94,1,1.42,1.55-.65.41-1.3,1.14-2,1.17-3,.13-6.06.12-9.08,0-.69,0-1.35-.74-2-1.13a17.26,17.26,0,0,0,1.4-1.57c.76-1.07,2-2.16,2.06-3.3.27-3.5.12-7,.1-10.56,0-3.23-1.08-4.23-4.07-3-1.57.64-2.59,2.57-3.91,3.87a24,24,0,0,1-2,1.61c-.28-.76-.87-1.56-.8-2.29.68-6.67.71-6.67,7.47-6.67Z"/><path class="cls-1" d="M164,308.36H174c2.74,7.4,5.38,14.49,8,21.67h-5.48c-.18-.86-.35-1.69-.52-2.53-.47-2.2-1.63-3.44-4.08-3.13a29.5,29.5,0,0,1-3.52,0c-5.83,0-5.83,0-7,5.69h-5.44C158.61,322.91,161.28,315.73,164,308.36Zm9.45,12a58,58,0,0,0-2.72-7.35,1.94,1.94,0,0,0-3.56,0,54.43,54.43,0,0,0-2.69,7.39Z"/><path class="cls-1" d="M307.8,211c0,2.35.07,4.7,0,7-.07,2.1.7,3.28,2.87,3.65a8.11,8.11,0,0,1,2.44,1.44c-.94.42-1.86,1.18-2.82,1.21-4.09.14-8.2.12-12.3,0-.72,0-1.42-.84-2.13-1.3.65-.43,1.25-1.15,2-1.26,4.3-.71,4.43-.8,4.45-5.18,0-1.76-.06-3.52,0-5.27.1-2.69-1-4-3.82-4-.84,0-1.69-.78-2.53-1.2.81-.46,1.59-1,2.43-1.37,1.82-.85,3.65-1.69,5.52-2.45,1-.42,2.08-.67,3.12-1a13.57,13.57,0,0,1,.8,2.91C307.88,206.46,307.8,208.71,307.8,211Z"/><path class="cls-1" d="M248.67,187.51c0-2.6-.08-4.74,0-6.88.15-3.58,2-5.61,5.67-5.76a70.76,70.76,0,0,1,11.71.47C260.4,179.29,254.75,183.25,248.67,187.51Z"/><path class="cls-1" d="M99,187.44a79.25,79.25,0,0,1,.06-8c.27-2.6,2.72-4.46,5.71-4.55a69,69,0,0,1,11.45.52Z"/><path class="cls-1" d="M223.8,174.82c3.61,0,7.22-.08,10.83,0,3.79.11,6,2.31,6.09,6.08.08,2,0,4.09,0,6.54-5.93-4.15-11.59-8.09-17.25-12Z"/><path class="cls-1" d="M90.89,187.41l-17.67-12.3c4.86,0,9.19-.24,13.48.08,2.63.2,4,2.28,4.17,4.94C91,182.5,90.89,184.88,90.89,187.41Z"/><path class="cls-1" d="M33.66,258c-2.07-.11-3.46-1.06-3.57-3.36a3.54,3.54,0,0,1,3.64-3.75c2.11.18,3.53,1.44,3.53,3.59S36,257.9,33.66,258Z"/></g></g></g></svg>