<svg xmlns="http://www.w3.org/2000/svg" viewBox="0 0 206.03 76.16"><defs><style>.cls-1{fill:#fff;}</style></defs><title>innovasjon white</title><g id="Layer_2" data-name="Layer 2"><g id="Layer_1-2" data-name="Layer 1"><path class="cls-1" d="M21.59,28.7h3.73c4.09,0,8.18,0,12.27,0a1.46,1.46,0,0,1,1.26.58q9,10.65,18,21.29a1.73,1.73,0,0,0,.73.56V0h14.3V71.91h-.71c-4.31,0-8.63,0-12.94,0a1.3,1.3,0,0,1-1.11-.54Q39.58,50.34,22,29.3C21.91,29.15,21.81,29,21.59,28.7Z"/><path class="cls-1" d="M14.26,71.87H0V57.54H14.26Z"/><path class="cls-1" d="M104.33,68.15V55.46h2.2V71.92c-.73,0-1.44,0-2.15,0-.22,0-.46-.32-.61-.54Q100.08,65.68,96.41,60l-.58-.87V71.87H93.58V55.43c.75,0,1.52,0,2.27,0,.2,0,.41.3.55.51l7.31,11.28C103.86,67.49,104,67.72,104.33,68.15Z"/><path class="cls-1" d="M139.27,60a3.6,3.6,0,0,1,3.11-1.52v1.73l-2,.72a13.33,13.33,0,0,1,.79,2.36,3.53,3.53,0,0,1-2.55,3.81,5.63,5.63,0,0,1-3.92,0c-.66-.26-.88.09-1,.55s-.1,1,.52,1.1c1,.14,2,.19,3,.27.79.07,1.58.08,2.37.18a2.94,2.94,0,0,1,2.76,1.9,3.13,3.13,0,0,1-1.1,3.53,7.41,7.41,0,0,1-2.43,1.18,9.24,9.24,0,0,1-5-.12c-1.21-.35-2.36-.88-2.67-2.28s.4-2.37,1.58-3.18c-.83-.47-1.41-1.14-1.11-2.05a6.27,6.27,0,0,1,1.32-2,.5.5,0,0,0,0-.13,3.52,3.52,0,0,1-.76-3.92,4,4,0,0,1,3.56-2.42A24,24,0,0,1,139.27,60Zm-2.64,14.55c.77-.14,1.52-.21,2.22-.41,1-.29,1.52-1,1.44-1.72s-.65-1-1.77-1.11c-1.29-.08-2.57-.15-3.85-.25a1.15,1.15,0,0,0-1.39,1,1.61,1.61,0,0,0,1.13,2A16.85,16.85,0,0,0,136.63,74.58Zm-.19-8.87a2.15,2.15,0,1,0-2.37-2.1A2.17,2.17,0,0,0,136.44,65.71Z"/><path class="cls-1" d="M154.63,66.4h-8.36A3.57,3.57,0,0,0,148,70a3.19,3.19,0,0,0,3.61-.43c.05,0,.13-.09.15-.15.51-1.42,1.7-1,2.78-1a3.42,3.42,0,0,1-1.07,2.23,5.46,5.46,0,0,1-5.89,1.33,5.35,5.35,0,0,1-3.83-4.57,6.52,6.52,0,0,1,1.38-5.78,5.39,5.39,0,0,1,9.51,3.68C154.64,65.61,154.63,66,154.63,66.4Zm-8.35-1.74h5.78c-.06-1.82-1.05-3-2.52-3.08C147.77,61.5,146.51,62.68,146.28,64.66Z"/><path class="cls-1" d="M159,37.86c.42-2.11-.68-3.36-2.68-3.09a2,2,0,0,0-1.63,1.14.93.93,0,0,1-.62.43c-.61.06-1.22,0-1.88,0a3.28,3.28,0,0,1,2.08-2.91,6.6,6.6,0,0,1,5.07-.07,3.29,3.29,0,0,1,2.14,3.2c.07,2.81,0,5.63,0,8.52h-2.35l-.11-1.49A4.38,4.38,0,0,1,155,45.47a3.49,3.49,0,0,1-3.36-2.74,3.39,3.39,0,0,1,2-4,11.75,11.75,0,0,1,4.42-.82Zm0,1.63c-1.41.08-2.81-.1-4.09.6a1.77,1.77,0,0,0-.87,2,1.7,1.7,0,0,0,1.66,1.42A3.27,3.27,0,0,0,159,39.49Z"/><path class="cls-1" d="M109.19,66c-.08-5.47,5-7.41,8.68-5.69A5.34,5.34,0,0,1,121,64.68c.31,2.32,0,4.5-1.89,6.1a5.93,5.93,0,0,1-6.61.86C110.08,70.58,109.23,68.49,109.19,66Zm9.42,0c-.07-.59-.1-1.11-.2-1.61a3.24,3.24,0,0,0-3.15-2.82A3.17,3.17,0,0,0,112,64.11a6.91,6.91,0,0,0,0,3.8,3.15,3.15,0,0,0,3.26,2.39,3.08,3.08,0,0,0,3.07-2.51C118.47,67.2,118.52,66.58,118.61,66Z"/><path class="cls-1" d="M181.13,39.26c-.13-5.57,5.28-7.52,8.92-5.56a5.8,5.8,0,0,1,3,5.13,5.93,5.93,0,0,1-4.48,6.48C184.44,46.26,181.14,43.58,181.13,39.26Zm9.42.07h-.06c0-.44,0-.89-.1-1.33a3.3,3.3,0,0,0-2.81-3.09,3.13,3.13,0,0,0-3.55,2,6.54,6.54,0,0,0,0,4.57,3.08,3.08,0,0,0,3.13,2.05,3,3,0,0,0,3-2.14A16.11,16.11,0,0,0,190.55,39.33Z"/><path class="cls-1" d="M126.31,39.24c.07-2.63,1-4.7,3.52-5.75a5.92,5.92,0,0,1,6.59,1c1.77,1.56,2,3.65,1.8,5.86a6,6,0,0,1-11.5,1.21A18.17,18.17,0,0,1,126.31,39.24Zm9.46-.11a16.06,16.06,0,0,0-.27-1.8,3.11,3.11,0,0,0-3.14-2.46,3,3,0,0,0-3.16,2.39,10.25,10.25,0,0,0-.12,3.45,3.11,3.11,0,0,0,3.25,2.85,3.16,3.16,0,0,0,3.26-2.85C135.69,40.23,135.7,39.73,135.77,39.13Z"/><path class="cls-1" d="M99.63,33.31H102v1.83c.41-.45.7-.8,1-1.12a4.75,4.75,0,0,1,5.28-.51,3.05,3.05,0,0,1,1.44,2.7c0,2.94,0,5.89,0,8.89H107.4c0-.26,0-.53,0-.79V37.18a1.85,1.85,0,0,0-1.89-2.11,3,3,0,0,0-3.4,2.75C102,39.92,102,42,102,44.13v1H99.63Z"/><path class="cls-1" d="M198.31,45.12H196V33.32h2.33v1.85a5.11,5.11,0,0,0,.39-.42,4.58,4.58,0,0,1,5.59-1.42A2.62,2.62,0,0,1,206,35.66c.08,3.14,0,6.28,0,9.45h-2.33v-.8c0-2.37,0-4.75,0-7.13a1.85,1.85,0,0,0-2-2.11,3.11,3.11,0,0,0-3.41,3.33c0,2,0,3.91,0,5.87Z"/><path class="cls-1" d="M113.48,45.11V33.32h2.37V35.2l.42-.52A4.6,4.6,0,0,1,122,33.4a3,3,0,0,1,1.65,2.87c0,2.92,0,5.84,0,8.82h-2.38V37.2a1.88,1.88,0,0,0-1.94-2.13A3,3,0,0,0,115.91,38c-.07,2.06,0,4.11,0,6.17v.93Z"/><path class="cls-1" d="M163.83,41.8H166c.87,1.6,1.77,2.1,3.41,1.87a1.7,1.7,0,0,0,1.63-1.54c.07-.86-.34-1.35-1.39-1.6-.89-.22-1.79-.4-2.68-.58a3,3,0,0,1-2.54-2.47,3.33,3.33,0,0,1,1.21-3.58,5.54,5.54,0,0,1,6-.16,2.71,2.71,0,0,1,1.29,2.56c-.6,0-1.22,0-1.83,0-.14,0-.32-.24-.41-.41a2.36,2.36,0,0,0-3.39-.73,1.48,1.48,0,0,0,.48,2.6,19.79,19.79,0,0,0,2.67.57c1.79.34,2.86,1.33,3,2.81a3.65,3.65,0,0,1-2.42,4,6.42,6.42,0,0,1-5.25-.34A3.51,3.51,0,0,1,163.83,41.8Z"/><path class="cls-1" d="M139.45,33.33a1.39,1.39,0,0,1,.23,0c2.26-.09,2.26-.09,3,2l2.43,7c.47-1.37.88-2.56,1.28-3.75.52-1.57,1.06-3.14,1.56-4.72a.67.67,0,0,1,.79-.56c.54,0,1.08,0,1.73,0-.43,1.16-.83,2.25-1.24,3.33-1,2.64-2,5.28-2.93,7.93a.77.77,0,0,1-.88.64c-1.58,0-1.58,0-2.14-1.5q-1.78-4.8-3.56-9.59C139.62,33.85,139.55,33.61,139.45,33.33Z"/><path class="cls-1" d="M174,49.46V47.61c2-.32,2-.34,2-2.39V33.31h2.36c0,.23.05.47.05.7,0,3.91,0,7.83,0,11.74C178.42,48.47,176.82,49.84,174,49.46Z"/><path class="cls-1" d="M93.59,28.73H96V45.1H93.59Z"/><path class="cls-1" d="M123.73,60.05h2.35v2.42c1.59-2.31,2.35-2.84,3.73-2.65v2.34l-.63.09a3.12,3.12,0,0,0-3,3.08c-.09,1.88-.05,3.76-.07,5.64,0,.29,0,.58,0,.91h-2.35Z"/><path class="cls-1" d="M175.89,28.37h2.72v2.54h-2.72Z"/></g></g></svg>