<svg xmlns="http://www.w3.org/2000/svg" viewBox="0 0 287.15 95.55"><defs><style>.cls-1{fill:#fefefe;}</style></defs><title>kiwi white</title><g id="Layer_2" data-name="Layer 2"><g id="Layer_1-2" data-name="Layer 1"><path class="cls-1" d="M193.85,0V86H167.74q-.17-25.65-.32-51.35l-.21,0q-6.39,25.68-12.78,51.39H135.1q-4.17-13.47-8.35-26.95h-.17l-2,6.84q-2.73,9.63-5.45,19.28a1,1,0,0,1-1.18.89q-9,0-18,0c-.72,0-1-.22-1.16-.9Q92.17,61,85.43,36.73a1.9,1.9,0,0,0-.48-.9V86.15H83.58l-39.82,0c-1.13,0-2.26,0-3.38,0a1.49,1.49,0,0,1-1.68-1Q32.79,72.61,26.81,60.09a1.83,1.83,0,0,0-.67-.85V86.07H.06c0-.27-.06-.54-.06-.82q0-24.7,0-49.42c0-11.39,0-22.77,0-34.16C.06.76.26.46,1.22.47c8,0,16,0,24,0h1V15.4c.4-.45.63-.68.83-.93,3.65-4.55,7.28-9.1,11-13.62a1.72,1.72,0,0,1,1.17-.6q32,0,64,0h.76c1.76,8,3.51,15.89,5.31,24.08.18-.5.28-.74.36-1L116.13.54a5,5,0,0,1,.2-.54h21.26a2.36,2.36,0,0,0,0,.38q2.89,11,5.8,22a2.47,2.47,0,0,0,.31.43c2-7.67,3.92-15.22,5.86-22.77ZM109.37,42.37h-.21c-.1-.29-.22-.58-.3-.87q-2.2-8.15-4.4-16.28-2.62-9.67-5.21-19.35c-.17-.64-.41-1-1.17-1-4.8,0-9.6,0-14.4,0-.73,0-1,.15-.75.94Q88.18,26,93.37,46.14q4.48,17.31,8.93,34.62c.23.91.59,1.24,1.56,1.22,3.22-.06,6.44,0,9.67,0,1.5,0,1.5,0,1.88-1.38q5.07-18.45,10.12-36.89c.09-.32.2-.64.31-1h.25c.12.31.26.61.35.92q5.63,18.54,11.21,37.09A1.43,1.43,0,0,0,139.32,82c3.25,0,6.51,0,9.76,0,1,0,1.33-.34,1.54-1.24q4.11-17.58,8.27-35.16Q163.57,25.81,168.24,6c.27-1.13.25-1.16-.87-1.16-4.74,0-9.48,0-14.21,0-.89,0-1.21.32-1.41,1.16q-4.08,16.85-8.24,33.68a9.06,9.06,0,0,1-.34,1,3.09,3.09,0,0,1-.62-1.28Q138,22.76,133.45,6.12a1.21,1.21,0,0,0-1.41-1c-4,0-7.92,0-11.88,0-1.46,0-1.46,0-1.82,1.46Q114,24,109.68,41.42C109.6,41.74,109.48,42.05,109.37,42.37ZM26.89,48.84c.28.57.48.93.65,1.31Q34.28,65.47,41,80.79a1.38,1.38,0,0,0,1.5,1c5.41,0,10.82,0,16.23,0,.33,0,.66,0,1.1-.08-.25-.56-.41-1-.61-1.38Q48.49,58.07,37.73,35.84a2.11,2.11,0,0,1,.2-2.5Q47.88,19.59,57.75,5.76a7.52,7.52,0,0,0,.46-.8,7.05,7.05,0,0,0-.76-.08c-5.51,0-11,0-16.53,0a1.92,1.92,0,0,0-1.6.88Q30.77,16.36,22.19,27c-.28.35-.62.67-1.13,1.22,0-.7-.1-1.09-.09-1.49.05-6.62.09-13.25.18-19.87,0-.93-.25-1.22-1.19-1.21q-7.16.06-14.3,0c-.91,0-1.22.25-1.22,1.19q0,37,0,74c0,.88.25,1.17,1.15,1.16,4.64,0,9.28,0,13.92,0,1.26,0,1.26,0,1.26-1.28q0-12.12,0-24.22a2.54,2.54,0,0,1,.79-2c1.31-1.33,2.56-2.71,3.84-4.08Zm161.85-5.23h0V6.17c0-1.32,0-1.32-1.35-1.32h-14.2c-1.31,0-1.32,0-1.31,1.34q.06,18.67.12,37.34t0,37.44c0,.92.25,1.21,1.19,1.2,4.71,0,9.41,0,14.11,0,1.39,0,1.39,0,1.39-1.36ZM79.32,43.53h0q0-18.72,0-37.45c0-.94-.28-1.2-1.2-1.18-4.48.09-9,.13-13.43.15-.86,0-1.09.27-1.09,1.11q0,37.35,0,74.71c0,.83.21,1.11,1.08,1.11,4.44,0,8.89,0,13.34,0,1.27,0,1.27,0,1.27-1.26Zm-20.69-30c-.21.24-.3.33-.37.43-5,6.74-9.92,13.48-14.91,20.19a1.16,1.16,0,0,0,0,1.4q7.39,15,14.77,30c.12.24.26.47.39.7l.16,0Z"/><path class="cls-1" d="M240,41.94h-7.36c-.15,0-.3,0-.57-.07V40.71q0-9.85,0-19.69a8.11,8.11,0,0,0-.15-1.63,1.77,1.77,0,0,0-2-1.68,2,2,0,0,0-2.13,1.8,8.64,8.64,0,0,0-.1,1.44V41.86h-8v-1.1q0-9.84,0-19.69a7.57,7.57,0,0,0-.27-1.89c-.33-1.16-.86-1.52-1.94-1.47a1.94,1.94,0,0,0-2,1.72,10,10,0,0,0-.14,1.73q0,9.75,0,19.49v1.22h-7.93V11.52c2.32,0,4.6,0,6.88,0,.17,0,.46.39.48.62.06.85,0,1.71.12,2.62,1.44-2.28,3.3-4,6.05-4.13s4.8,1.35,6,4c.4-.55.74-1.07,1.13-1.55a6.29,6.29,0,0,1,6.83-2.23,6.09,6.09,0,0,1,5,4.56,7.07,7.07,0,0,1,.17,1.72q0,11.92,0,23.84C240.1,41.26,240.06,41.54,240,41.94Z"/><path class="cls-1" d="M215.59,82.5v13h-8V55H215v3.33l.23.08c.23-.35.46-.7.7-1a6.94,6.94,0,0,1,7.44-3.08,5.81,5.81,0,0,1,3.74,3.1,12.66,12.66,0,0,1,1.48,6c0,4.88,0,9.77-.17,14.65a12.33,12.33,0,0,1-1,4.28c-1.89,4.47-6.79,5.36-10.24,1.94C216.63,83.76,216.2,83.2,215.59,82.5Zm4.95-12.32h0c0-1.67,0-3.35,0-5a11.91,11.91,0,0,0-.42-2.64,1.8,1.8,0,0,0-1.75-1.42,2,2,0,0,0-2.09,1.24,6.28,6.28,0,0,0-.57,2.22c0,3.66-.07,7.33,0,11a6.47,6.47,0,0,0,.74,2.66,1.9,1.9,0,0,0,3.46,0,6.5,6.5,0,0,0,.59-2.5C220.6,73.85,220.54,72,220.54,70.18Z"/><path class="cls-1" d="M275.39,41.89h-8V40.7q0-9.84,0-19.69a8.88,8.88,0,0,0-.11-1.63,1.8,1.8,0,0,0-1.8-1.68,2,2,0,0,0-2.29,1.63,5.93,5.93,0,0,0-.12,1.33v21.2h-7.93V11.58h7.33V15l.19,0c.21-.37.4-.76.62-1.13a5.93,5.93,0,0,1,6.37-3.17c3.16.54,5.12,2.25,5.68,5a5.44,5.44,0,0,1,.1,1.06V41.21C275.42,41.4,275.4,41.59,275.39,41.89Z"/><path class="cls-1" d="M277.72,63.85h-7.4c-.1-.7-.17-1.36-.29-2-.23-1.27-.76-1.85-1.85-2a2.76,2.76,0,0,0-2.92,1,2.71,2.71,0,0,0,.18,3.08,9.41,9.41,0,0,0,2.31,1.69c1.76.93,3.61,1.69,5.36,2.64,4.38,2.4,5.92,6.11,4.71,11.48a7.81,7.81,0,0,1-5.31,5.79,14.79,14.79,0,0,1-10.12,0A8.41,8.41,0,0,1,257,76.13h7.46c.13.81.2,1.62.4,2.38a2.82,2.82,0,0,0,5.44.12,3,3,0,0,0-1.42-3.47c-1.49-.77-3-1.43-4.5-2.21a27,27,0,0,1-3.48-2.07,9.23,9.23,0,0,1-3.42-10.71c1.11-3.41,3.68-5.18,7.05-5.85a13.56,13.56,0,0,1,8.15.71A8.36,8.36,0,0,1,277.72,63.85Z"/><path class="cls-1" d="M239.13,85.29H231.2V54.9c2.33,0,4.64,0,7,0,.15,0,.41.5.42.78.05,1.14,0,2.29.11,3.48,1.1-2.86,2.72-5,6.17-5.15v9.59c-1.07,0-2.12-.06-3.17,0-1.66.12-2.24.71-2.46,2.39a11.58,11.58,0,0,0-.08,1.44q0,8.31,0,16.6Z"/><path class="cls-1" d="M287.15,41.89h-7.92V11.59h7.92Z"/><path class="cls-1" d="M255.07,85.3h-7.86V55h7.86Z"/><path class="cls-1" d="M251.23,41.89h-7.85V11.58h7.85Z"/><path class="cls-1" d="M287.13,8.44h-7.92V1.24h7.92Z"/><path class="cls-1" d="M251.26,1.24V8.42h-7.88V1.24Z"/><path class="cls-1" d="M247.2,44.62h7.87v7.23H247.2Z"/></g></g></svg>