<svg xmlns="http://www.w3.org/2000/svg" viewBox="0 0 213.04 49.73"><defs><style>.cls-1{fill:#fefefe;}</style></defs><title>lifeness white</title><g id="Layer_2" data-name="Layer 2"><g id="Layer_1-2" data-name="Layer 1"><path class="cls-1" d="M89.1,35.43H64.91a7.39,7.39,0,0,0,1.23,4.3,7.3,7.3,0,0,0,6.37,3.43A32.33,32.33,0,0,0,76.8,43a5.35,5.35,0,0,0,4-2.81c.3-.49.51-.44.86-.08,1.42,1.48,2.84,3,4.3,4.4.39.38.35.5,0,.89a13,13,0,0,1-6.33,3.73,14.53,14.53,0,0,1-3.47.49,45.09,45.09,0,0,1-7.17-.2,12.55,12.55,0,0,1-5.91-2.83,13.63,13.63,0,0,1-3.59-4.24,11.23,11.23,0,0,1-1.25-3,37.5,37.5,0,0,1-1-6.63,18.24,18.24,0,0,1,1.61-8,14.43,14.43,0,0,1,5.54-6.46,18,18,0,0,1,10.87-2.36,15,15,0,0,1,7.83,2.72A13.82,13.82,0,0,1,88.73,27C89.4,29.79,89.06,32.52,89.1,35.43ZM73.27,29.5c2.56,0,5.13,0,7.69,0,.62,0,.88-.21.76-.82s-.22-1.05-.35-1.58a6.2,6.2,0,0,0-5.11-4.9,12.78,12.78,0,0,0-6.34.28,7.59,7.59,0,0,0-5,6.21c-.07.65.14.81.75.81C68.2,29.49,70.74,29.5,73.27,29.5Z"/><path class="cls-1" d="M156.68,35.43h-24a6.87,6.87,0,0,0,1.18,4.25,7.25,7.25,0,0,0,6.41,3.49c1.32,0,2.64,0,3.95-.12a5.6,5.6,0,0,0,4.37-2.87,7,7,0,0,1,.53-.6c1.61,1.7,3.19,3.37,4.75,5.06a.7.7,0,0,1-.07.68,15.1,15.1,0,0,1-4.68,3.24A12.77,12.77,0,0,1,143,49.65a50.11,50.11,0,0,1-6.26-.23,13.35,13.35,0,0,1-5.85-2.8A14.72,14.72,0,0,1,126.18,40a18.11,18.11,0,0,1-.91-4.14,23,23,0,0,1,.2-7.45,20,20,0,0,1,1.64-4.59,13.59,13.59,0,0,1,3.87-4.7,15.48,15.48,0,0,1,4.78-2.49,19.09,19.09,0,0,1,9.22-.49A14.31,14.31,0,0,1,151.37,19,14.73,14.73,0,0,1,156,25.05a11,11,0,0,1,.82,3.58c.13,2.1,0,4.22,0,6.33A2.29,2.29,0,0,1,156.68,35.43ZM141,29.5h7.2c1.26,0,1.26,0,1-1.2a2.71,2.71,0,0,1,0-.41,6.35,6.35,0,0,0-5.45-5.73,10.91,10.91,0,0,0-6.86.63,9.38,9.38,0,0,0-2.8,2.34,10.29,10.29,0,0,0-1.35,2.74c-.46,1.12-.1,1.63,1.08,1.63Z"/><path class="cls-1" d="M99.87,20.67a21.25,21.25,0,0,1,2.14-2,16.28,16.28,0,0,1,3.32-1.94,15.37,15.37,0,0,1,8.93-.43A9,9,0,0,1,119.05,19a9.68,9.68,0,0,1,2.55,4.82,25.92,25.92,0,0,1,.59,4.79c.06,6.56,0,13.12,0,19.68,0,.27,0,.54,0,.91h-3.84c-1,0-1.94,0-2.9,0-.71,0-1-.19-.94-.93q0-7.4,0-14.8a41,41,0,0,0-.21-5.2,6.66,6.66,0,0,0-2.34-4.67,5,5,0,0,0-3-1c-1,0-1.93,0-2.89,0a6.29,6.29,0,0,0-5.61,4.69,23.88,23.88,0,0,0-.57,4.44c-.07,5.49,0,11,0,16.46,0,.77-.19,1.06-1,1-2,0-4,0-6,0-.62,0-.87-.16-.87-.84q0-15.42,0-30.84c0-.61.19-.83.8-.83,2.1,0,4.19,0,6.29,0,.6,0,.84.21.81.82C99.85,18.52,99.87,19.56,99.87,20.67Z"/><path class="cls-1" d="M8.05,41.36H26.32c1.64,0,1.4,0,1.41,1.45,0,1.82,0,3.63,0,5.45,0,.54-.19.73-.72.73H.3a2,2,0,0,1-.3-.07V.19c.29,0,.58,0,.87,0h6c1.22,0,1.22,0,1.22,1.19v40Z"/><path class="cls-1" d="M212.75,25.93H205.4c-.19-.57-.42-1.12-.56-1.68a3,3,0,0,0-2.08-2c-2.26-.83-4.59-1-6.64.55-1.69,1.29-1.59,3.32,0,4.73a6.61,6.61,0,0,0,2.39,1.14c2.78.85,5.66,1.44,8.36,2.49,2.91,1.14,5.32,3.13,5.93,6.4a9.55,9.55,0,0,1-2,8.46,12,12,0,0,1-4.64,3.1,9.15,9.15,0,0,1-3.8.55c-2.25-.06-4.59.25-6.75-.23a11.3,11.3,0,0,1-8.2-6,7.42,7.42,0,0,1-.94-4.19H194a4.15,4.15,0,0,0,1.87,3.37,13.47,13.47,0,0,0,1.52.76c2.07,1,5.52.65,6.92-.84s1.25-5-1.12-5.63c-1.28-.36-2.55-.75-3.83-1.1a62.24,62.24,0,0,1-6-1.73,8.35,8.35,0,0,1-5.47-5.62,8.8,8.8,0,0,1,2-9,11.39,11.39,0,0,1,4.91-2.89,18.9,18.9,0,0,1,9.47-.34,10.28,10.28,0,0,1,7.31,4.8A7.71,7.71,0,0,1,212.75,25.93Z"/><path class="cls-1" d="M176.7,26a14.29,14.29,0,0,0-1.13-2.52,3.71,3.71,0,0,0-1.65-1.24,7.14,7.14,0,0,0-5.66,0,3,3,0,0,0-2.08,2.48,2.82,2.82,0,0,0,1.39,3,22.13,22.13,0,0,0,3.58,1.44c2.24.71,4.57,1.15,6.75,2a9.21,9.21,0,0,1,6,5.92,9.81,9.81,0,0,1-6.81,12.11,11.76,11.76,0,0,1-3.29.5,31.19,31.19,0,0,1-6.84-.16,11.48,11.48,0,0,1-8.65-6.63,9.61,9.61,0,0,1-.65-3.59h7.22a19.1,19.1,0,0,0,1.74,2.85,4.83,4.83,0,0,0,2.17,1.33,8.14,8.14,0,0,0,5.23.13,3.93,3.93,0,0,0,2.3-4.58,3.54,3.54,0,0,0-2.84-2.44c-2.46-.7-4.9-1.47-7.39-2.06A9.56,9.56,0,0,1,162,32.59a9.45,9.45,0,0,1-2.32-2.73,10.06,10.06,0,0,1-1-3.83,12.72,12.72,0,0,1,.64-3.56c.49-2.06,2.06-3.31,3.65-4.48a10.31,10.31,0,0,1,2.72-1.29,19,19,0,0,1,9.93-.44,10.51,10.51,0,0,1,7.35,5,12.11,12.11,0,0,1,.94,3.27c.1.43.24,1.15,0,1.28a2.71,2.71,0,0,1-1.42.18Z"/><path class="cls-1" d="M50.48,49.1H42.85c0-.28-.06-.52-.06-.76,0-12.43,0-24.85,0-37.28a10.91,10.91,0,0,1,3.34-8.32A10.09,10.09,0,0,1,50.35.47a19.36,19.36,0,0,1,7-.29c1.32.11,1.51.38,1.51,1.66V7c-1.32-.06-2.55-.23-3.76-.16a7.69,7.69,0,0,0-2.68.65,3.28,3.28,0,0,0-1.82,2.72c-.14,2.11,0,4.23,0,6.45h7v5.43c0,1.07,0,1.07-1.11,1.07h-6Z"/><path class="cls-1" d="M38.35,49.09H30.73v-1q0-15.18,0-30.36c0-.81.16-1.11,1-1.08,2,.07,3.92,0,5.87,0,.62,0,.81.19.8.8q0,15.47,0,30.94A6.62,6.62,0,0,1,38.35,49.09Z"/><path class="cls-1" d="M31,.22c2.26,0,4.58,0,6.89,0a.74.74,0,0,1,.53.51c0,2.31,0,4.62,0,7Z"/></g></g></svg>