<svg xmlns="http://www.w3.org/2000/svg" viewBox="0 0 221.43 241.79"><defs><style>.cls-1{fill:#fff;}</style></defs><title>nerstranda white</title><g id="Layer_2" data-name="Layer 2"><g id="Layer_1-2" data-name="Layer 1"><path class="cls-1" d="M111.1,0c4.79.41,9.76.27,14.42,1.41,3.58.87,7.3,1.17,10.83,2.67,3.36,1.42,7,2.22,10.41,3.75,12.53,5.58,15.72,8.05,23.06,14.14,1.2,1,2.45,1.93,3.68,2.88l-3.67,4.47a2.89,2.89,0,0,1-.35.35c-3.36,3.35-3.27,3.25-6.95,0-3.43-3-7.52-5.07-11.26-7.63-6.13-4.19-13.1-6.18-19.93-8.49-2.77-.94-5.78-2-8.91-1.38-5.75-2-11.69-.65-17.53-1-2.05-.11-4.08-.26-6.12.86-1.58.87-3.94-.8-5.53,1.08-7.08.05-13.07,3.71-19.4,6.11-3.29,1.24-6.21,3.53-9.16,5.55s-5.56,4.22-8.37,6.31c-2,1.46-2.42,1.41-4.1-.14-.36-.34-.7-.7-1.06-1.05l-4.23-4.23a52.05,52.05,0,0,1,4.48-4.55A93.68,93.68,0,0,1,67.87,10.36,75.59,75.59,0,0,1,78.53,6c5-1.62,10.15-2.73,15.17-4.24A7.62,7.62,0,0,1,95,1.25C100.32.81,105.66.42,111.1,0Z"/><path class="cls-1" d="M111.28,186.69c-3,0-5.37.2-7.67,0a112.94,112.94,0,0,1-23-4.45c-4.86-1.57-9.33-3.95-14.1-5.67-3.57-1.28-6.57-4.18-9.76-6.44-2.71-1.93-5.36-3.94-8-6a2.27,2.27,0,0,1-.33-3.38c1.16-1.51,2.29-3.05,3.53-4.51,1.53-1.79,1.68-1.78,4-.43a5.52,5.52,0,0,1,1.52,1.11,29.9,29.9,0,0,0,9.09,7c6.31,3.48,12.61,7.08,19.71,8.9,5.81,1.49,11.5,3.37,17.68,3.08,3.14-.15,6.3,1.51,9.54.87,7.49-1.49,15.09-2.13,22.49-4.52,7.17-2.32,13.54-5.93,20-9.51,3.43-1.91,6.37-4.73,9.44-7.26,1-.82,1.63-.79,2.44.12.65.75,1.39,1.42,2.1,2.12,4.46,4.46,4.62,4.67-.2,8.33-5,3.78-10,7.74-15.59,10.43a99.16,99.16,0,0,1-15.79,6.34,136.49,136.49,0,0,1-15.16,3.19C118.9,186.63,114.74,186.27,111.28,186.69Z"/><path class="cls-1" d="M52.48,116.89H51c-5.42,0-5.61,0-7-5.33-.43-1.66-1-1.66-2.22-1.66-5.81,0-11.61,0-17.42,0-3.39,0-4.29.6-5.41,3.51-1.33,3.44-1.33,3.45-4.38,3.46s-6-.09-9,0c-2.53.1-1-1-.62-1.78C8.94,106,13.18,97,17.37,87.91c2.39-5.16,4.8-10.3,7.4-15.35.5-1,.58-1.7,1.84-1.55.82.1,1.66,0,2.49,0,3.25.14,6.51.31,9.76.46,1.34,2.77,2.72,5.51,4,8.3q4.18,9,8.29,18,3.72,8.16,7.38,16.35c.83,1.87.31,2.74-1.58,2.78C55.47,116.91,54,116.89,52.48,116.89ZM31,99.07c2.72-.13,4.68-.22,6.65-.34.1,0,.31-.28.28-.35-.64-1.73-1.27-3.46-2-5.16-1-2.26-2-4.51-3-6.73a1.1,1.1,0,0,0-2,.08c-1,2.24-1.93,4.51-2.89,6.77Q27,95.89,25.93,98.45Z"/><path class="cls-1" d="M147.81,71c7.14,0,14.27,0,21.4,0,1.44,0,2.6-.19,2.35,2-.34,2.91-.28,5.87-.39,8.81l-8.39.16-8.89.17c-.11,3.1-.3,6.21-.32,9.31q-.07,11.7,0,23.39c0,1.32,0,2.16-1.77,2.07-3.29-.18-6.59-.15-9.89-.2-.11-3.27-.29-6.54-.31-9.82-.05-7.13,0-14.26,0-21.39,0-3.51,0-3.52-3.74-3.52-4,0-8,0-11.94,0-1.48,0-2.57.12-2.32-2,.33-2.91.28-5.87.4-8.8,2.8-.05,5.6-.13,8.4-.15C137.53,71,142.67,71,147.81,71Z"/><path class="cls-1" d="M76.78,94c0-7,0-13.93,0-20.9,0-1.3,0-2.18,1.76-2.08,3.29.18,6.59.14,9.89.2.11,3.27.29,6.54.32,9.81,0,6.47,0,12.94,0,19.41,0,4.51,0,4.52,4.73,4.52,7,0,13.94,0,20.91,0,1.48,0,2.56-.13,2.33,2-.34,3.24-.29,6.53-.4,9.8-3.14.05-6.27.14-9.4.14q-13.19,0-26.38,0c-3.75,0-3.76,0-3.76-4Z"/><path class="cls-1" d="M192.44,94c0-7,0-13.94,0-20.91,0-1.32.05-2.16,1.77-2.06,3.29.18,6.59.15,9.89.21.11,3.27.3,6.54.31,9.82,0,11.11,0,22.23,0,33.35,0,2.47,0,2.52-2.24,2.51-3.13,0-6.26-.1-9.39-.16-.11-3.11-.28-6.21-.32-9.32C192.4,102.92,192.44,98.44,192.44,94Z"/><path class="cls-1" d="M173.5,230.15c0,2.48.14,5-.06,7.45-.1,1.3,1.06,3.43-.81,3.79-2.08.41-4.61.86-6.27-1.5-1.9-2.7-3.92-5.32-5.81-8-.78-1.13-1.33-2.42-2-3.62a3.14,3.14,0,0,0-.58-.57c-.14.28-.41.57-.39.82.28,2.73-.44,5.47.51,8.23.42,1.24-.31,2.9-.6,4.35,0,.2-.5.45-.77.44-1.62,0-3.39.21-4.8-.38-.53-.22-.32-2.4-.33-3.69,0-5.47.06-10.94-.06-16.4,0-1.49.25-3,1.52-3.26,1.61-.34,3.64-1,5,.83,2.19,2.88,4.33,5.82,6.49,8.73.66.89,1.28,1.8,2,2.67a2.2,2.2,0,0,0,.69.4,2.63,2.63,0,0,0,.33-.85c0-3.15,0-6.29,0-9.44,0-2.61,0-2.61,2.74-2.52.17,0,.33,0,.5,0,2,.15,2.69.93,2.72,3.1C173.53,223.85,173.5,227,173.5,230.15Z"/><path class="cls-1" d="M21.94,230.11c0,2.66.1,5.31-.05,8-.06,1.15.85,3.13-.78,3.32-1.93.23-4.36,1.1-5.92-1.14-2.76-4-5.47-8-8.21-12a4,4,0,0,0-.58-.59c-.14.28-.39.55-.39.83,0,3.81-.08,7.62,0,11.43,0,1.34-.44,1.76-1.7,1.63-.65-.07-1.34.07-2,0C1,241.28,0,240.6,0,239q0-9.45,0-18.9a2.34,2.34,0,0,1,2.36-2.49c2.05-.27,3.86.11,5.14,2,2.31,3.37,4.67,6.7,7,10a4.52,4.52,0,0,0,1,.83,5.48,5.48,0,0,0,.36-1.33c0-3.32.09-6.64,0-10,0-1.42.56-1.68,1.74-1.58a18.77,18.77,0,0,1,2,0A2.39,2.39,0,0,1,22,220.17C21.92,223.48,21.94,226.8,21.94,230.11Z"/><path class="cls-1" d="M113.76,217.6c1.94.44,4.25-.31,6.72.85,4.06,1.92,4.93,2.74,5.23,6.9a7.13,7.13,0,0,1-3.07,6.72c-1,.8-1.37,1.53-.28,2.8a38.08,38.08,0,0,1,2.88,4.74c.67,1.09.71,1.82-.8,1.9-1,.06-2,0-3,0-1.52.08-2.25-.65-2.85-2a31,31,0,0,0-3-5.21,2.71,2.71,0,0,0-2-.67c-.31,0-.83.82-.87,1.29-.12,1.32,0,2.65-.06,4-.09,1.73-.92,2.5-2.7,2.63-.65,0-1.32,0-2,0-1.15.09-1.32-.52-1.31-1.5.06-2.81,0-5.63,0-8.45,0-4,.15-8-.06-11.92-.1-2,.66-2.22,2.27-2.09S111.88,217.6,113.76,217.6Zm-1.09,7.47a7.21,7.21,0,0,1,0,1.47c-.44,2,.68,2.2,2.22,2,.81-.08,1.66.08,2.46,0a2.34,2.34,0,0,0,2.32-2.47c0-1.26.27-2.56-1.66-2.69-.89-.07-1.73-.7-2.61-.77C112.7,222.41,112.7,222.47,112.67,225.07Z"/><path class="cls-1" d="M176.49,229.78c-.59-3,.88-6.78-.66-10.45-.15-.36.75-1.66,1.15-1.66,4.82.06,9.78-.87,14.36,1.35,3.64,1.77,5.92,4.37,6.26,8.83.16,2.12-.51,4.1-.2,6.16a1.82,1.82,0,0,1-.32,1.34c-3,3.23-5.88,6.49-10.88,6.2-3.13-.18-6.26-.15-9.39-.21q-.17-4.67-.32-9.33C176.47,231.51,176.49,231,176.49,229.78Zm7.46,6.76c.49,0,1,0,1.48,0,3.37-.17,5.26-1.92,6.67-6.15a5.39,5.39,0,0,0-2.51-6,17.33,17.33,0,0,0-5.68-1.74c-2.18-.42-2.41-.11-2.43,2.26q0,4.69,0,9.39C181.5,236.52,181.52,236.52,184,236.54Z"/><path class="cls-1" d="M44.87,229.78c-.56-3,.86-6.75-.63-10.42-.14-.37.71-1.65,1.1-1.65,4.83,0,9.74-.85,14.45.89,2.29.85,3.36,2.89,3.94,5a10.24,10.24,0,0,1,0,4.92c-.41,1.77-1.89,2.77-3.67,3.4-.68.24-1.81,1.08-.35,2,2.12,1.39,2.5,3.94,3.82,5.87.74,1.08.27,1.66-1.15,1.71a11.32,11.32,0,0,1-3-.05A4.31,4.31,0,0,1,57,240.14a13.8,13.8,0,0,1-2.74-4.78c-.5-2.18-1.87-1.84-3.23-1.76a1.57,1.57,0,0,0-1.15,1c-.15,1.31,0,2.64-.08,4,0,.95,0,2.57-.4,2.7a9.64,9.64,0,0,1-3.87.17c-.28,0-.65-1-.66-1.51C44.84,236.79,44.87,233.65,44.87,229.78Zm5-4.47c.12,3.81-.75,3.22,3.44,3.22a10.7,10.7,0,0,0,2.68-.61,2.21,2.21,0,0,0,2-2.58c-.05-1.64-1.17-1.51-1.93-2.13-1.63-1.33-3.45-.34-5.17-.57-.27,0-.77.73-1,1.21A4.44,4.44,0,0,0,49.86,225.31Z"/><path class="cls-1" d="M138.17,217.6c3.35,0,4.6.56,5.36,3.5,1.64,6.41,4.41,12.4,6.72,18.55.46,1.25.48,1.82-.95,1.87-1,0-2,0-3,0-1.52.06-2.67-.57-2.69-2.11s-.42-2-1.94-1.91a20.15,20.15,0,0,1-4,0c-2.61-.28-4.64.16-5.16,3.21a1.25,1.25,0,0,1-1,.77c-1.61,0-3.62.37-4.72-.43-1.27-.94.31-2.57.76-3.82,2-5.47,4-10.89,6.12-16.32.21-.56.82-1.12.77-1.63-.2-1.83.91-1.77,2.13-1.7C137.18,217.62,137.68,217.6,138.17,217.6Zm.08,15c3.6,0,3.65-.06,2-3.84-.49-1.12-1.08-2.19-1.63-3.29-.14-.27-.31-.54-.46-.8-.18.23-.49.44-.52.69a14.45,14.45,0,0,1-1.88,5.68c-.46.76-.17,1.59,1,1.56C137.26,232.54,137.75,232.55,138.25,232.55Z"/><path class="cls-1" d="M218.2,241.53c-2.68,0-2.64-.05-3.86-3a1.77,1.77,0,0,0-1.26-1c-2.31-.09-4.62,0-6.94-.05-1.52,0-2.67.57-2.68,2.12s-.43,2.06-1.94,1.9a21,21,0,0,0-3,0c-1.28,0-1.29-.89-1.09-1.65a20.55,20.55,0,0,1,1.5-4.33c2.59-5.05,3.58-10.75,6.44-15.68-.47-2.17.75-2.48,2.48-2.29.66.08,1.33,0,2,0,2.58.05,2.48.09,3.53,2.81,1.5,3.84,3.16,7.61,4.74,11.42.94,2.26,1.84,4.53,2.8,6.78s.59,2.87-1.75,2.91Zm-8.73-9a13.07,13.07,0,0,0,2,0c.26,0,.7-.55.64-.7-.76-2.17-1.58-4.31-2.42-6.44-.11-.29-.45-.48-.69-.71a9.11,9.11,0,0,0-.58,1.06q-1,2.58-1.85,5.19c-.3.86-.3,1.62.93,1.63Z"/><path class="cls-1" d="M24.93,229.35c0-3.32,0-6.64,0-10,0-1.06-.05-1.87,1.5-1.83,4.65.1,9.3.05,13.95,0,1,0,1.62.11,1.52,1.28a7.42,7.42,0,0,0,0,1.49c.21,1.59,0,2.48-2.06,2.29-2.47-.24-5,0-7.47-.09-1.6-.09-1.47.86-1.45,1.87s-.33,2.34,1.64,2.19a57.88,57.88,0,0,1,7,0c1.83.09,3.29,2.92,2.33,4.44a1.69,1.69,0,0,1-1.26.5c-2.65.05-5.31.07-8,0-1.19,0-1.92.18-1.73,1.6a8.83,8.83,0,0,1,0,2c-.09,1,.29,1.46,1.38,1.44,2.65-.06,5.31,0,8-.05,1.3,0,1.8.38,1.65,1.68a10.17,10.17,0,0,0,0,2c.09,1.09-.41,1.37-1.44,1.36-4.65,0-9.3-.07-14,0-1.41,0-1.61-.56-1.59-1.75C25,236.33,24.93,232.84,24.93,229.35Z"/><path class="cls-1" d="M75.22,241.64c-3.2.6-5.94-.71-8.63-2.12-2.14-1.13-2.25-1.93-.65-3.61.35-.36.74-.68,1-1.06.79-1,1.34-1.44,2.52-.19,1.9,2,4.57,2.2,7.15,1.81a2.9,2.9,0,0,0,2-1.7c.25-1.24-.74-2.1-2-2.2-3-.23-5.58-1.69-8.33-2.74a3.39,3.39,0,0,1-2.17-2.62c-.36-1.8-.51-4.08.33-5.57,1.12-2,3.07-3.93,5.68-4s5-.4,7.63.74a11.52,11.52,0,0,1,3.52,2.27,1.54,1.54,0,0,1,.41,1.28c-.58,1.88-3.11,2.77-5.06,2-1.29-.48-2.28-1.61-3.89-1.49a3.16,3.16,0,0,0-2.55,1.12c-.62.76-.76,1.52.26,1.91,2,.75,4.08,1.35,6.13,2,2.9.93,5.91,3.63,6.15,5.44.49,3.71-1.6,6.28-4.28,8.09C79.2,242,77,241.5,75.22,241.64Z"/><path class="cls-1" d="M94.92,217.6c2.48,0,5-.09,7.43,0,1.87.09,3.29,2.88,2.32,4.44a1.81,1.81,0,0,1-1.25.5c-1.79.11-3.59.14-5.38.2-.11,1.94-.28,3.88-.31,5.82,0,3.64-.17,7.28,0,10.91.13,2-.73,2.21-2.29,2a14.67,14.67,0,0,0-2.48,0c-1.15.07-1.3-.54-1.29-1.51,0-5.13-.1-10.25.08-15.37.06-1.93-.6-2.31-2.25-2.1-.82.11-1.66,0-2.48,0-1.11.08-1.41-.46-1.33-1.47a16.69,16.69,0,0,1,.07-2.46,1.64,1.64,0,0,1,1.17-1C89.62,217.55,92.27,217.6,94.92,217.6Z"/><path class="cls-1" d="M45.52,162.61l-.65-.35c.12-.11.25-.33.33-.31a2.9,2.9,0,0,1,.67.31Z"/><path class="cls-1" d="M161.18,215.75l.35.35a2.9,2.9,0,0,1-.67.31c-.08,0-.22-.2-.33-.31Z"/><path class="cls-1" d="M161.68,218.24l.35-.64c.11.11.33.24.31.32a2.9,2.9,0,0,1-.31.67Z"/></g></g></svg>