<svg xmlns="http://www.w3.org/2000/svg" viewBox="0 0 211.92 94.05"><defs><style>.cls-1{fill:#fff;}</style></defs><title>npt</title><g id="Layer_2" data-name="Layer 2"><g id="Layer_1-2" data-name="Layer 1"><path class="cls-1" d="M21.37,43.65V93.94H0V0H1.39c4.32,0,8.64,0,13,0A2.74,2.74,0,0,1,17,1.32Q33.95,25.41,51,49.46a3,3,0,0,0,1,1V1.62C52,0,52,0,53.61,0H73.44V94H72c-4.44,0-8.87,0-13.31,0A2.26,2.26,0,0,1,56.61,93Q39.54,68.77,22.4,44.62c-.25-.35-.51-.69-.76-1Z"/><path class="cls-1" d="M166.58,57.13v-35c0-1.62,0-1.63-1.64-1.63H144.09c-1.55,0-1.55,0-1.55-1.59,0-5.8,0-11.61,0-17.42,0-1,.26-1.42,1.37-1.42q33.29,0,66.55,0c1.13,0,1.48.32,1.47,1.46q-.07,8.76,0,17.54c0,1.17-.41,1.44-1.5,1.44-6.95,0-13.9,0-20.85,0-1.84,0-1.84,0-1.84,1.82q0,34.72,0,69.46c0,2,0,2-1.91,2-5.93,0-11.86,0-17.78,0-1.14,0-1.47-.35-1.47-1.48C166.6,80.59,166.58,68.86,166.58,57.13Z"/><path class="cls-1" d="M86.69,54.3c0-2.87,0-5.73,0-8.59,0-1.06.36-1.34,1.36-1.32,4.09,0,8.17-.1,12.25,0,8.1.28,12.85-6.93,11.92-13.77-.72-5.33-3.88-9.12-8.67-10.26a13.42,13.42,0,0,0-3-.36Q94.25,20,88,20c-1,0-1.36-.29-1.35-1.33,0-5.69,0-11.38,0-17.07,0-1,.24-1.41,1.31-1.4,5,.06,9.9-.06,14.84.08a32,32,0,0,1,2.88,63.62,83.1,83.1,0,0,1-10,.34c-2.55,0-5.1,0-7.65,0-1.12,0-1.41-.38-1.39-1.43C86.72,60,86.68,57.16,86.69,54.3Z"/></g></g></svg>