<svg xmlns="http://www.w3.org/2000/svg" viewBox="0 0 286.98 54.25"><defs><style>.cls-1{fill:#fff;}</style></defs><title>ntnu white</title><g id="Layer_2" data-name="Layer 2"><g id="Layer_1-2" data-name="Layer 1"><path class="cls-1" d="M41.67,0c.46.12.91.26,1.37.37a13.26,13.26,0,0,1,10.52,13c0,9,.07,18,0,27A13.21,13.21,0,0,1,40.24,53.5q-13.49.06-27,0A13.28,13.28,0,0,1,0,40.15V13.65A13.33,13.33,0,0,1,10.69.33c.35-.08.67-.22,1-.33ZM40.26,26.87c0-4.14,0-8.28,0-12.42,0-.88-.27-1.16-1.16-1.15q-12.34,0-24.68,0c-.89,0-1.17.28-1.16,1.16q0,12.3,0,24.6c0,.95.3,1.21,1.23,1.21q12.29-.06,24.57,0c.94,0,1.22-.28,1.21-1.22C40.24,35,40.26,30.93,40.26,26.87Z"/><path class="cls-1" d="M226.55,0V1.82H220V52.56a5.43,5.43,0,0,1,0,1.07.85.85,0,0,1-1.39.4,6.9,6.9,0,0,1-.63-.87q-16.5-24-33-48c-.29-.42-.59-.83-1.07-1.49v47.8h7.91v1.7H174.48V51.53c2,0,3.86,0,5.77,0,.88,0,1.17-.23,1.16-1.14q0-23.76,0-47.53c0-.28,0-.55-.06-.93h-6.91l.1-1.94h17a3.13,3.13,0,0,0,.15.32L217,37.1a2.46,2.46,0,0,0,.47.43V1.85h-7.74V0Z"/><path class="cls-1" d="M117.92,0V1.82h-6.6V52.33a3.86,3.86,0,0,1,0,1.18,1.18,1.18,0,0,1-.68.67c-.21.08-.57-.1-.79-.26a2.83,2.83,0,0,1-.49-.67L76,4.8c-.21-.31-.45-.6-.86-1.14V51.47h8v1.74H65.81V51.53c1.92,0,3.78-.06,5.65,0,1,0,1.27-.29,1.27-1.28q0-21.92,0-43.83V1.92h-7L65.89,0h17a6.19,6.19,0,0,0,.32.63q12.48,18.12,25,36.23a9.73,9.73,0,0,0,.65.79V1.87h-7.71V0Z"/><path class="cls-1" d="M170,0V17h-2.13a18.07,18.07,0,0,0-.48-3.06,47.2,47.2,0,0,0-2.48-6.67A8.81,8.81,0,0,0,157,2.39c-1.76-.12-3.52-.07-5.27-.18-1-.07-1.2.3-1.2,1.22,0,10.71,0,21.42,0,32.13,0,4.9,0,9.8.06,14.7,0,.35,0,.7,0,1.24h8.11v1.73H134.1V51.6c.39,0,.81-.07,1.23-.07,1.95,0,3.91,0,5.87,0,.73,0,1-.27,1-1,0-1.71,0-3.42,0-5.13q0-20.79,0-41.58c0-1.63,0-1.65-1.63-1.62s-3.35,0-5,.15A8.74,8.74,0,0,0,128.78,6a17.72,17.72,0,0,0-3.71,9.3c0,.56-.13,1.11-.2,1.73h-2.15V0Z"/><path class="cls-1" d="M255.81,0V1.87h-7.45c0,1.46,0,2.8,0,4.14,0,11.19,0,22.38,0,33.57a21.28,21.28,0,0,0,.54,4.49,8.29,8.29,0,0,0,6.14,6.56,27.74,27.74,0,0,0,16.41-.25c3.62-1.16,5.58-3.85,6.11-7.55a32.73,32.73,0,0,0,.33-4.52c0-11.51,0-23,0-34.53V1.88h-7.59c-.05-.71-.09-1.3-.13-1.88H287V1.84H280.3V7c0,10.39,0,20.78-.06,31.17a34.24,34.24,0,0,1-.69,6.39,10.08,10.08,0,0,1-6.35,7.55,30.08,30.08,0,0,1-11.38,1.95,47.25,47.25,0,0,1-12.6-1.26c-5.53-1.4-8.35-4.62-8.94-10.29a52.38,52.38,0,0,1-.29-5.6q-.06-16.12-.05-32.25V1.93h-6.56L233.51,0Z"/><path class="cls-1" d="M37.62,26.71a10.93,10.93,0,1,1-21.85-.05,10.93,10.93,0,0,1,21.85.05Z"/></g></g></svg>