<svg xmlns="http://www.w3.org/2000/svg" viewBox="0 0 369.3 214.86"><defs><style>.cls-1{fill:#fff;}</style></defs><title>propulse white</title><g id="Layer_2" data-name="Layer 2"><g id="Layer_1-2" data-name="Layer 1"><path class="cls-1" d="M283.59,38.27c-.29,4.7-.46,9.4-.91,14.08-.4,4.13-1.11,8.23-1.67,12.34-.07.5-.09,1-.18,1.52-.14.74-.45,1-1.21,1a3.22,3.22,0,0,1-.82,0c-1.74-.4-2.54-.72-2.1-3,.83-4.28,1.43-8.58,1.83-12.91a132.89,132.89,0,0,0,.62-16.21,54.44,54.44,0,0,0-3.06-17.64,21.89,21.89,0,0,0-6-9.16,15.9,15.9,0,0,0-8.23-3.74,23.08,23.08,0,0,0-10,.93A46.53,46.53,0,0,0,232.37,17a178.67,178.67,0,0,0-17.44,19.73,246.75,246.75,0,0,0-20.79,32.31,255.11,255.11,0,0,0-14.13,30c-.11.29-.23.59-.37.87a1.72,1.72,0,0,1-2.48,1c-1.79-.58-2.19-1.37-1.49-3.09,3.8-9.3,8-18.41,12.69-27.3,3.42-6.49,7.06-12.85,11-19a228.38,228.38,0,0,1,21.68-29c2.71-3,5.48-6,8.44-8.84A55,55,0,0,1,248.55,1.91,29.64,29.64,0,0,1,261.49.12a19.92,19.92,0,0,1,15.14,8.8A35.35,35.35,0,0,1,282,22.72,81.93,81.93,0,0,1,283.59,38.27Z"/><path class="cls-1" d="M279,72.85c-.4,1.9-.71,3.63-1.12,5.34-1.36,5.61-3.27,11-5.17,16.49-3.32,9.51-7.11,18.85-10.91,28.18q-2.07,5.11-4.09,10.27a11.39,11.39,0,0,0-.63,6.58,12.68,12.68,0,0,1-.45,6.15c-.93,3.28-2,6.53-3,9.79-.55,1.76-1.08,2-2.77,1.33L239,152.26a14.4,14.4,0,0,1-1.41-.58,1.12,1.12,0,0,1-.62-1.47,11.59,11.59,0,0,1,.55-1.42,51.41,51.41,0,0,1,7-12.19c1-1.26,2.06-2.46,3.78-2.81.75-.15,1.12-.82,1.39-1.48.78-1.89,1.55-3.77,2.31-5.67,4.41-11,8.7-22,13.56-32.82A179,179,0,0,1,274,76.63c.79-1.35,1.69-2.65,2.54-4,.1-.17.24-.31.35-.47a1.06,1.06,0,0,1,1.42-.47C278.7,71.94,278.84,72.51,279,72.85Z"/><path class="cls-1" d="M157.43,174.82c.2-2.92.35-6.57.74-10.19.43-4,1-8,1.67-12,.78-4.47,1.78-8.91,2.71-13.36.27-1.29.95-1.67,2.24-1.37l.68.18a1.68,1.68,0,0,1,1.37,2.3c-1,4.36-2,8.71-2.81,13.09-.59,3.08-1,6.19-1.36,9.3-.4,3.54-.74,7.1-.89,10.66a62,62,0,0,0,1.42,16.47,36,36,0,0,0,6.7,14.63,14.41,14.41,0,0,0,9.1,5.63,19.44,19.44,0,0,0,8.6-.66,50.12,50.12,0,0,0,16.86-8.89,120,120,0,0,0,17.8-17.4A202.69,202.69,0,0,0,239.05,160a5.25,5.25,0,0,1,.33-.49c1.2-1.69,2.93-1.62,4.07.16a1.46,1.46,0,0,1-.14,1.74c-1.09,1.68-2.12,3.4-3.26,5-3.51,5-7,10.06-10.63,15A113.32,113.32,0,0,1,215.35,197a89,89,0,0,1-18.54,13.6,32.1,32.1,0,0,1-12,3.74c-.74.07-1.46.29-2.19.39a4.73,4.73,0,0,1-1.4.08c-1.62-.26-3.25-.49-4.84-.89a18.76,18.76,0,0,1-10.44-7.4A39.34,39.34,0,0,1,159.24,192a61.24,61.24,0,0,1-1.55-12C157.63,178.51,157.54,177,157.43,174.82Z"/><path class="cls-1" d="M297.45,134.51c-5.22,0-10.44,0-15.65,0a6.8,6.8,0,0,1-1.74-.22,2.42,2.42,0,0,1-1.78-2.69,2.12,2.12,0,0,1,2-2.25,14.71,14.71,0,0,1,2.57-.23c9.69,0,19.37,0,29.06,0a12.55,12.55,0,0,0,2.21-.23,1.47,1.47,0,0,0,1.25-1.49,1.54,1.54,0,0,0-1.21-1.66,3.67,3.67,0,0,0-.81-.11c-.62,0-1.25,0-1.88,0-8.71,0-17.41,0-26.12,0a13.2,13.2,0,0,1-4-.67c-3.09-1-4.73-3.68-4.62-7a6.73,6.73,0,0,1,5.38-6.58,21.52,21.52,0,0,1,4.31-.45q14-.06,27.89,0a13.68,13.68,0,0,1,3.13.38,2.44,2.44,0,0,1,1.76,2.49,2.32,2.32,0,0,1-1.74,2.37,9.59,9.59,0,0,1-2.44.3c-9.84,0-19.69,0-29.53,0a8.94,8.94,0,0,0-2.2.24,1.38,1.38,0,0,0-1.19,1.53,1.55,1.55,0,0,0,1.26,1.63,9.09,9.09,0,0,0,2.09.19H310a42,42,0,0,1,4.34.18c3.48.41,6.6,2.85,6.47,7.09-.13,3.93-2.47,7.18-7.35,7.24C308.12,134.56,302.78,134.51,297.45,134.51Z"/><path class="cls-1" d="M83,125.62l4.3,3.22c.41.31.82.62,1.2,1a2.62,2.62,0,0,1,.57,3.4,2.5,2.5,0,0,1-3.17,1,15,15,0,0,1-2.63-1.53A47.84,47.84,0,0,0,74,127.35a25.2,25.2,0,0,0-8-1.79c-3.84-.26-7.68.11-11.52.08-1.11,0-1.44.33-1.64,1.42a9.34,9.34,0,0,0-.12,1.4c0,1.18,0,2.35-.07,3.53a2.49,2.49,0,0,1-2.58,2.52,2.36,2.36,0,0,1-2.66-2.11,18.78,18.78,0,0,1,.39-8.27A5.43,5.43,0,0,1,52,120.37a23,23,0,0,1,6.2-.43c.23,0,.47,0,.7,0l22.24.13a6.36,6.36,0,0,0,1.5-.19,1.62,1.62,0,0,0,1.34-1.8,1.68,1.68,0,0,0-1.39-1.67,6,6,0,0,0-1.28-.08q-15.13,0-30.25,0a8.13,8.13,0,0,1-2.09-.24,2.33,2.33,0,0,1-1.62-2.57,2.12,2.12,0,0,1,1.71-2.34,19.17,19.17,0,0,1,3.61-.39q13.83,0,27.66,0a11.73,11.73,0,0,1,5.27,1c5.07,2.46,4.68,9.18,1.7,11.51a23.47,23.47,0,0,1-3.24,1.86A9.86,9.86,0,0,1,83,125.62Z"/><path class="cls-1" d="M116.4,134.51c-3.57,0-7.14,0-10.71,0-6.27,0-10.15-4-10.91-9.29-.61-4.26.18-8.13,3.13-11.38a8.42,8.42,0,0,1,6.24-2.89c7.69-.1,15.37-.18,23.06-.13a11.3,11.3,0,0,1,11.25,11.27A14,14,0,0,1,136,130.4a8.65,8.65,0,0,1-6.31,3.88,31.27,31.27,0,0,1-3.87.22C122.68,134.53,119.54,134.51,116.4,134.51Zm.12-5.41c3.69,0,7.38,0,11.07,0a5.17,5.17,0,0,0,5.37-4.33,11.61,11.61,0,0,0,.28-2.56,5.5,5.5,0,0,0-4.13-5.5,14,14,0,0,0-3.47-.47c-6.16,0-12.32,0-18.48,0a20.34,20.34,0,0,0-2.7.22,4.82,4.82,0,0,0-4.09,3.12,8.52,8.52,0,0,0,.17,6.75,4.21,4.21,0,0,0,3.07,2.52,11.71,11.71,0,0,0,2.2.27C109.38,129.11,113,129.1,116.52,129.1Z"/><path class="cls-1" d="M19,110.8c4.78,0,9.57,0,14.35,0a15.85,15.85,0,0,1,3.94.53,6.93,6.93,0,0,1,5,7.25,7.06,7.06,0,0,1-6.41,6.72,39.63,39.63,0,0,1-4.22.22c-7.84,0-15.69,0-23.53,0-2.39,0-2.52.18-2.5,2.54a35.11,35.11,0,0,1-.16,4.23,2.4,2.4,0,0,1-2.71,2.18,2.36,2.36,0,0,1-2.54-2.24c-.12-1.44-.17-2.9-.17-4.34,0-4.48,0-9,.05-13.42,0-.31,0-.62.05-.94A2.56,2.56,0,0,1,2.61,111a15,15,0,0,1,2.23-.16Zm1.93,9.32H34.17a5.46,5.46,0,0,0,1.4-.15,1.59,1.59,0,0,0,1.35-1.78,1.67,1.67,0,0,0-1.42-1.76,9.37,9.37,0,0,0-2-.2q-12.17,0-24.33,0c-.67,0-1.33,0-2,0a1.5,1.5,0,0,0-1.41.69,2.65,2.65,0,0,0-.13,2.49c.37.77,1.13.72,1.84.76h13.4Z"/><path class="cls-1" d="M162.36,116.37c-5,0-10,0-14.94,0-.59,0-1.17-.09-1.76-.13a2.31,2.31,0,0,1-2.08-2.65,2.41,2.41,0,0,1,2.17-2.62,16.5,16.5,0,0,1,2.11-.15c4.47,0,8.94,0,13.41,0,5.61,0,11.22.09,16.83.14a7.89,7.89,0,0,1,4.56,1.31c2.52,1.75,3.12,4.33,2.76,7.17a6.52,6.52,0,0,1-6.33,5.89c-2.54.22-5.09.25-7.64.26-6.39,0-12.78,0-19.18,0a14.89,14.89,0,0,0-1.64.06A1.56,1.56,0,0,0,149,127.3c-.06,1.09,0,2.19-.07,3.29a14.46,14.46,0,0,1-.18,1.86,2.23,2.23,0,0,1-1.62,1.84c-1.84.62-3.12-.07-3.44-2a19.61,19.61,0,0,1,.08-7.48,5.72,5.72,0,0,1,5.35-4.66c1.36-.1,2.74-.16,4.11-.17q11.88,0,23.77,0a11.19,11.19,0,0,0,1.64-.08,1.67,1.67,0,0,0,1.58-1.62,1.81,1.81,0,0,0-1.52-1.83,8.28,8.28,0,0,0-1.41-.07Z"/><path class="cls-1" d="M349.36,134.51c-5.29,0-10.59,0-15.88,0a8.85,8.85,0,0,1-4.32-1,6.51,6.51,0,0,1-3.27-5.65,48.26,48.26,0,0,1,0-5.64c.09-1.59.56-2,2.22-2.14.86-.08,1.72-.14,2.58-.14q16.29,0,32.58,0a18.53,18.53,0,0,1,2.58.17,2.23,2.23,0,0,1,2.09,2.29c.1,1.48-.48,2.51-1.74,2.83a9.58,9.58,0,0,1-2.33.27c-6,0-11.92,0-17.88,0-3.29,0-6.59,0-9.88,0a27.85,27.85,0,0,1-3.15-.25c-1.13-.13-1.65.25-1.74,1.35-.14,1.7.52,2.39,2.35,2.39,10.32,0,20.63,0,30.94,0a14.63,14.63,0,0,1,3.34.53,1.62,1.62,0,0,1,1.28,1.92c-.1,1.78-.46,2.38-2.19,2.78a8.27,8.27,0,0,1-1.86.18c-5.25,0-10.51,0-15.76,0Z"/><path class="cls-1" d="M212.73,134.51c-3.57,0-7.14,0-10.71,0a12.6,12.6,0,0,1-6.1-1.49,9.46,9.46,0,0,1-5-7.81c-.3-3.47-.19-7-.24-10.45a8.21,8.21,0,0,1,.19-2,2.68,2.68,0,0,1,5-.13,9,9,0,0,1,.27,2.2c0,2.27,0,4.55,0,6.82a17.19,17.19,0,0,0,.44,3.72,4.44,4.44,0,0,0,3.9,3.44,27.78,27.78,0,0,0,4,.27q9.24,0,18.47-.05a8.19,8.19,0,0,0,2.2-.33,5,5,0,0,0,3.9-5.1c.11-2.82.06-5.65.1-8.47,0-.62.06-1.25.11-1.87.13-1.63,1.14-2.28,2.89-2.19,1.48.07,2.19.87,2.31,2.45.06.9,0,1.8,0,2.7-.05,2.94,0,5.89-.21,8.81a10,10,0,0,1-8.95,9.27,22,22,0,0,1-2.81.19C219.23,134.53,216,134.51,212.73,134.51Z"/><path class="cls-1" d="M347.29,116.37H329.76a11.69,11.69,0,0,1-1.87-.15,2.64,2.64,0,0,1-.69-4.87,9.44,9.44,0,0,1,3-.53c3.21-.06,6.43,0,9.65,0h24.83a14.78,14.78,0,0,1,2,.13,2.89,2.89,0,0,1,2.44,4,1.45,1.45,0,0,1-.55.58,5.69,5.69,0,0,1-3.24.87Z"/><path class="cls-1" d="M356.32,159.47H352c-.35,0-.71,0-1.06,0-2.9-.25-4.47-1.86-4.63-4.77-.07-1.29-.12-2.58-.14-3.87a5.47,5.47,0,0,1,.16-1.4,1,1,0,0,1,1.06-.77,1,1,0,0,1,1.07.73,6.69,6.69,0,0,1,.17,1.27c0,1.09,0,2.19.07,3.29.13,2,1.14,3,3.16,3h8.81c2,0,2.9-.74,3.13-2.71.14-1.2.12-2.42.18-3.63a6.17,6.17,0,0,1,.06-1.06,1.07,1.07,0,0,1,1.2-.88,1,1,0,0,1,1.07.9c.14,2.22.49,4.45-.3,6.63a4.5,4.5,0,0,1-4.61,3.3C359.69,159.48,358,159.47,356.32,159.47Z"/><path class="cls-1" d="M292,151c-1.68.08-3.24.13-4.81.24a2.24,2.24,0,0,0-2.32,2.31c-.1,1.52-.07,3.05-.17,4.57a1.15,1.15,0,0,1-1.5,1.19c-.54-.07-.91-.34-.91-.9a45.86,45.86,0,0,1,.09-6,4.2,4.2,0,0,1,4-3.73,57.74,57.74,0,0,1,10.92,0,4.28,4.28,0,0,1,3.89,3.1,17.15,17.15,0,0,1,.4,6.42,1.22,1.22,0,0,1-1.36,1.18c-.72,0-1.15-.48-1.17-1.34,0-1.18,0-2.36,0-3.53a6.12,6.12,0,0,0-.1-1.05,2.31,2.31,0,0,0-2.43-2.24C294.9,151.07,293.37,151,292,151Z"/><path class="cls-1" d="M343.68,155.87c0,.74,0,1.49,0,2.23s-.44,1.23-1.12,1.24a1.1,1.1,0,0,1-1.28-1.09c-.12-1-.1-1.95-.14-2.93,0-.7,0-1.42-.09-2.11a2,2,0,0,0-2-1.94c-3.05-.13-6.11-.22-9.16-.18-1.8,0-2.64.85-2.9,2.62a28.06,28.06,0,0,0-.17,3c0,.5,0,1,0,1.52a1.09,1.09,0,0,1-1.15,1.09,1.13,1.13,0,0,1-1.2-1.07c-.06-1.52-.11-3.05,0-4.56a8.35,8.35,0,0,1,.58-2.39,4,4,0,0,1,3.65-2.72c1.44-.13,2.89-.16,4.34-.15,2,0,3.91.13,5.87.13a4.36,4.36,0,0,1,4.73,4.32c0,1,.12,2,.18,2.93Z"/><path class="cls-1" d="M313.05,148.47H320a9.16,9.16,0,0,1,1.17.05c1,.12,1.39.44,1.4,1.24s-.32,1.12-1.36,1.26l-3.85.47a2.57,2.57,0,0,0-2.63,2.49c-.18,1-.27,2-.42,3a10.72,10.72,0,0,1-.28,1.5,1.15,1.15,0,0,1-2.26-.1,3.13,3.13,0,0,1-.07-.81c.05-1.53.11-3.05.17-4.58,0-.2,0-.39,0-.59,0-1-.33-1.37-1.44-1.39-1.72,0-3.45,0-5.17,0a5.87,5.87,0,0,1-.94,0,1.12,1.12,0,0,1-1.1-1.15,1.09,1.09,0,0,1,1.1-1.24,18.41,18.41,0,0,1,2.23-.12C308.73,148.46,310.89,148.47,313.05,148.47Z"/></g></g></svg>