<svg xmlns="http://www.w3.org/2000/svg" viewBox="0 0 498.58 497.74"><defs><style>.cls-1{fill:#fff;}</style></defs><title>salt white</title><g id="Layer_2" data-name="Layer 2"><g id="Layer_1-2" data-name="Layer 1"><path class="cls-1" d="M498.58,497.74c-.27-.21-.74-.4-.78-.66a12,12,0,0,1-.05-2.08V.54H.47V497.18H0V0H498.58Z"/><path class="cls-1" d="M5.78,249.66C5.83,115.16,115.12,6.09,249.9,6.3,384.43,6.51,493,116.43,492.82,250c-.2,134.24-109.41,243.4-243.61,243.31C114.8,493.25,5.73,384.06,5.78,249.66ZM249.15,469.84c120.11.81,220.21-97.51,220.27-219.43S371.18,29.67,249.51,29.62,29.38,128,29.11,249.53C28.85,371.75,128.9,470.52,249.15,469.84Z"/><path class="cls-1" d="M249.28,465.61C130.05,466,33.4,368.42,33.39,249.81c0-118.36,96.4-216.1,216.3-215.88,119.25.21,215.58,97.55,215.48,216.08S368.48,466,249.28,465.61ZM260,325.12c-7.28-45.89-14.49-91.39-21.72-137H214.59c-7.24,45.64-14.46,91.19-21.72,137,7.06,0,13.95,0,20.83-.05a1.75,1.75,0,0,0,1.24-1.18c.64-4.9,1.17-9.81,1.74-14.72.54-4.68,1.11-9.35,1.67-14.06h15.82c.61,5,1.19,10,1.81,14.94s1.27,9.92,1.92,15c.77,0,1.39.1,2,.11ZM185.43,219.06c-1.18-4.87-2-9.53-3.45-14-3.9-12.15-11.9-18.25-24.54-19.12-12.83-.89-23.14,5.62-27.44,17.74-4,11.34-3.55,22.75.76,33.93,3.58,9.27,9.77,16.79,16.51,23.93,5.45,5.76,11,11.44,14.37,18.84A34.87,34.87,0,0,1,163.93,301c-.64,3.75-2.75,5.71-6,6-3.67.36-5.81-.81-7.3-4.52a45.47,45.47,0,0,1-2.17-7.6c-.59-2.76-.87-5.58-1.31-8.51l-20.81,3.73c1,10.18,2.82,20,9.26,28.08a23.6,23.6,0,0,0,7.51,6.14c15.89,8.13,34.6.78,40.39-16,4.51-13.1,3.18-26.11-2.3-38.7-3.75-8.62-9.79-15.65-16-22.56-4.1-4.54-8.22-9.11-11.88-14-4.91-6.58-5.91-14.14-4.08-22.06.75-3.24,2.68-4.87,5.54-5.16s5.24,1.09,6.55,4.15a33.74,33.74,0,0,1,1.76,5.77c.55,2.49.89,5,1.35,7.69ZM353.64,325V208.56H372.1V188.21h-59v15.18c0,5.23,0,5.23,5.24,5.23h13.2V325Zm-82.54-137V325H319V304.47H293.1V198.72c0-2.93-.07-5.86,0-8.78.05-1.47-.44-1.94-1.9-1.92-4.46.08-8.92,0-13.38,0Zm31,208.4c.7-11-8.95-23.14-23-23a22.84,22.84,0,1,0,.58,45.67A22.58,22.58,0,0,0,302.06,396.45ZM261.22,34.66c-4.46.27-5,.47-7.93,3.8a22.54,22.54,0,0,0-5.73,18.92A22.84,22.84,0,1,0,287.43,39a4.14,4.14,0,0,0-2.22-1.34C277.22,36.59,269.22,35.64,261.22,34.66Zm-66.77,38a18,18,0,1,0,17.82-18A17.91,17.91,0,0,0,194.45,72.65Zm-15.64,67a14.32,14.32,0,0,0,14.3-14.18,14.32,14.32,0,0,0-28.63-.18A14.32,14.32,0,0,0,178.81,139.7ZM296.68,336.12a14.4,14.4,0,0,0-14.33,14.19,14.32,14.32,0,1,0,28.64.14A14.24,14.24,0,0,0,296.68,336.12Zm47.61,31.18a8.27,8.27,0,0,0-8.26-8.42,8.37,8.37,0,0,0-8.37,8.35,8.32,8.32,0,1,0,16.63.07ZM215.49,112.14a8.31,8.31,0,1,0-8.38,8.31A8.33,8.33,0,0,0,215.49,112.14Zm32.12,244.6a8.33,8.33,0,0,0-8.34,8.36,8.35,8.35,0,0,0,16.7,0A8.33,8.33,0,0,0,247.61,356.74ZM227.3,419.57c4.81,0,8.27-3.3,8.28-8,0-4.92-3.34-8.44-8-8.45-4.9,0-8.19,3.36-8.45,8.12C218.86,415.38,223,420.16,227.3,419.57Zm6,33.86a7.11,7.11,0,0,0-6.91,9,2.66,2.66,0,0,0,1.82,1.49c3,.39,6.07.48,9.09.82a2.19,2.19,0,0,0,2.62-1.73A7.23,7.23,0,0,0,233.32,453.43ZM199.54,162.69a5,5,0,0,0-5-4.88,5.07,5.07,0,0,0-4.92,5,5,5,0,1,0,9.91-.1ZM246,90.43a4.92,4.92,0,1,0-5-4.85A5,5,0,0,0,246,90.43Zm8.82,337.12a5,5,0,0,0-4.9-5,5,5,0,0,0-5,4.9,4.94,4.94,0,1,0,9.88.06Z"/><path class="cls-1" d="M225.87,223.93c1.93,16.45,3.95,33.68,6,51H220.24C222.15,257.6,224.05,240.37,225.87,223.93Z"/></g></g></svg>